{
  "title" : "",
  "description" : "",
  "author" : "",
  "targetLoudness" : -18.0,
  "shouldApplyLoudnessNormalization" : true,
  "videoFormatFrameRate" : 30,
  "audioFormatSampleRate" : 44100,
  "width" : 1280.0,
  "height" : 720.0,
  "version" : "3.0",
  "editRate" : 30,
  "authoringClientName" :  {
    "name" : "Camtasia",
    "platform" : "Windows",
    "version" : "19.0"
  },
  "sourceBin" : [
    {
      "id" : 1,
      "src" : "C:\\Dropbox\\UniversidadPython\\Videos\\06-00-Profundizando\\Leccion02\\02-20-01-MetodoIsLowerIsUpper-UP.trec",
      "rect" : [0, 0, 1280, 720],
      "lastMod" : "20210619T012029",
      "sourceTracks" : [
        {
          "range" : [0, 6672],
          "type" : 0,
          "editRate" : 30,
          "trackRect" : [0, 0, 1280, 720],
          "sampleRate" : 29,
          "bitDepth" : 0,
          "numChannels" : 0,
          "integratedLUFS" : 100.0,
          "peakLevel" : -1.0,
          "metaData" : "2b7b6a00-7a1f-11e2-83d0-0017f200be7f;2b7b6aef-7a1f-11e2-83d0-0017f200be7f;2b7b6af0-7a1f-11e2-83d0-0017f200be7f;2b7b6af1-7a1f-11e2-83d0-0017f200be7f;2b7b6af2-7a1f-11e2-83d0-0017f200be7f;2b7b6af3-7a1f-11e2-83d0-0017f200be7f;2b7b6af5-7a1f-11e2-83d0-0017f200be7f;2b7b6af6-7a1f-11e2-83d0-0017f200be7f;2b7b6af7-7a1f-11e2-83d0-0017f200be7f;2b7b6af8-7a1f-11e2-83d0-0017f200be7f;2b7b6af9-7a1f-11e2-83d0-0017f200be7f;2b7b6afa-7a1f-11e2-83d0-0017f200be7f;"
        },
        {
          "range" : [0, 6671000],
          "type" : 0,
          "editRate" : 30000,
          "trackRect" : [0, 0, 1280, 720],
          "sampleRate" : 30,
          "bitDepth" : 0,
          "numChannels" : 0,
          "integratedLUFS" : 100.0,
          "peakLevel" : -1.0,
          "metaData" : ""
        },
        {
          "range" : [0, 9791488],
          "type" : 2,
          "editRate" : 44100,
          "trackRect" : [0, 0, 0, 0],
          "sampleRate" : 44100,
          "bitDepth" : 16,
          "numChannels" : 2,
          "integratedLUFS" : -17.8324025675421,
          "peakLevel" : 1.0,
          "metaData" : ""
        }
      ],
      "metadata" : {
        "timeAdded" : "20210619T012154.658150"
      }
    }
  ],
  "timeline" : {
    "id" : 2,
    "sceneTrack" : {
      "scenes" : [
        {
          "duration" : 132.266666666667,
          "title" : "",
          "type" : "",
          "csml" : {
            "tracks" : [
              {
                "trackIndex" : 0,
                "medias" : [
                  {
                    "id" : 3,
                    "_type" : "StitchedMedia",
                    "minMediaStart" : 0,
                    "attributes" : {
                      "ident" : "02-20-01-MetodoIsLowerIsUpper-UP",
                      "gain" : 1.0,
                      "mixToMono" : false
                    },
                    "parameters" : {
                      "cursorOpacity" : {
                        "type" : "double",
                        "defaultValue" : 1.0,
                        "interp" : "linr"
                      },
                      "cursorScale" : {
                        "type" : "double",
                        "defaultValue" : 1.0,
                        "interp" : "linr"
                      }
                    },
                    "medias" : [
                        {
                          "id" : 4,
                          "_type" : "ScreenVMFile",
                          "src" : 1,
                          "trackNumber" : 0,
                          "attributes" : {
                            "ident" : "02-20-01-MetodoIsLowerIsUpper-UP"
                          },
                          "parameters" : {
                            "cursorScale" : {
                              "type" : "double",
                              "defaultValue" : 0.0,
                              "interp" : "linr"
                            },
                            "cursorOpacity" : {
                              "type" : "double",
                              "defaultValue" : 0.0,
                              "interp" : "linr"
                            }
                          },
                          "effects" : [

                          ],
                          "start" : 0,
                          "duration" : 344,
                          "mediaStart" : 0,
                          "mediaDuration" : 344,
                          "scalar" : 1,
                          "metadata" : {
                            "AutoAppliedSmartFocus" : "False",
                            "clipSpeedAttribute" : false,
                            "default-translation0" : 0.0,
                            "default-translation1" : 0.0,
                            "effectApplied" : "none"
                          },
                          "animationTracks" : {

                          }
                        },
                        {
                          "id" : 5,
                          "_type" : "ScreenVMFile",
                          "src" : 1,
                          "trackNumber" : 0,
                          "attributes" : {
                            "ident" : "02-20-01-MetodoIsLowerIsUpper-UP"
                          },
                          "parameters" : {
                            "cursorScale" : {
                              "type" : "double",
                              "defaultValue" : 0.0,
                              "interp" : "linr"
                            },
                            "cursorOpacity" : {
                              "type" : "double",
                              "defaultValue" : 0.0,
                              "interp" : "linr"
                            }
                          },
                          "effects" : [

                          ],
                          "start" : 344,
                          "duration" : 176,
                          "mediaStart" : 482,
                          "mediaDuration" : 176,
                          "scalar" : 1,
                          "metadata" : {
                            "AutoAppliedSmartFocus" : "False",
                            "clipSpeedAttribute" : false,
                            "default-translation0" : 0.0,
                            "default-translation1" : 0.0,
                            "effectApplied" : "none"
                          },
                          "animationTracks" : {

                          }
                        },
                        {
                          "id" : 6,
                          "_type" : "ScreenVMFile",
                          "src" : 1,
                          "trackNumber" : 0,
                          "attributes" : {
                            "ident" : "02-20-01-MetodoIsLowerIsUpper-UP"
                          },
                          "parameters" : {
                            "cursorScale" : {
                              "type" : "double",
                              "defaultValue" : 0.0,
                              "interp" : "linr"
                            },
                            "cursorOpacity" : {
                              "type" : "double",
                              "defaultValue" : 0.0,
                              "interp" : "linr"
                            }
                          },
                          "effects" : [

                          ],
                          "start" : 520,
                          "duration" : 96,
                          "mediaStart" : 1217,
                          "mediaDuration" : 96,
                          "scalar" : 1,
                          "metadata" : {
                            "AutoAppliedSmartFocus" : "False",
                            "clipSpeedAttribute" : false,
                            "default-translation0" : 0.0,
                            "default-translation1" : 0.0,
                            "effectApplied" : "none"
                          },
                          "animationTracks" : {

                          }
                        },
                        {
                          "id" : 7,
                          "_type" : "ScreenVMFile",
                          "src" : 1,
                          "trackNumber" : 0,
                          "attributes" : {
                            "ident" : "02-20-01-MetodoIsLowerIsUpper-UP"
                          },
                          "parameters" : {
                            "cursorScale" : {
                              "type" : "double",
                              "defaultValue" : 0.0,
                              "interp" : "linr"
                            },
                            "cursorOpacity" : {
                              "type" : "double",
                              "defaultValue" : 0.0,
                              "interp" : "linr"
                            }
                          },
                          "effects" : [

                          ],
                          "start" : 616,
                          "duration" : 457,
                          "mediaStart" : 1427,
                          "mediaDuration" : 457,
                          "scalar" : 1,
                          "metadata" : {
                            "AutoAppliedSmartFocus" : "False",
                            "clipSpeedAttribute" : false,
                            "default-translation0" : 0.0,
                            "default-translation1" : 0.0,
                            "effectApplied" : "none"
                          },
                          "animationTracks" : {

                          }
                        },
                        {
                          "id" : 8,
                          "_type" : "ScreenVMFile",
                          "src" : 1,
                          "trackNumber" : 0,
                          "attributes" : {
                            "ident" : "02-20-01-MetodoIsLowerIsUpper-UP"
                          },
                          "parameters" : {
                            "cursorScale" : {
                              "type" : "double",
                              "defaultValue" : 0.0,
                              "interp" : "linr"
                            },
                            "cursorOpacity" : {
                              "type" : "double",
                              "defaultValue" : 0.0,
                              "interp" : "linr"
                            }
                          },
                          "effects" : [

                          ],
                          "start" : 1073,
                          "duration" : 2,
                          "mediaStart" : 1904,
                          "mediaDuration" : 2,
                          "scalar" : 1,
                          "metadata" : {
                            "AutoAppliedSmartFocus" : "False",
                            "clipSpeedAttribute" : false,
                            "default-translation0" : 0.0,
                            "default-translation1" : 0.0,
                            "effectApplied" : "none"
                          },
                          "animationTracks" : {

                          }
                        },
                        {
                          "id" : 9,
                          "_type" : "ScreenVMFile",
                          "src" : 1,
                          "trackNumber" : 0,
                          "attributes" : {
                            "ident" : "02-20-01-MetodoIsLowerIsUpper-UP"
                          },
                          "parameters" : {
                            "cursorScale" : {
                              "type" : "double",
                              "defaultValue" : 0.0,
                              "interp" : "linr"
                            },
                            "cursorOpacity" : {
                              "type" : "double",
                              "defaultValue" : 0.0,
                              "interp" : "linr"
                            }
                          },
                          "effects" : [

                          ],
                          "start" : 1075,
                          "duration" : 111,
                          "mediaStart" : 1980,
                          "mediaDuration" : 111,
                          "scalar" : 1,
                          "metadata" : {
                            "AutoAppliedSmartFocus" : "False",
                            "clipSpeedAttribute" : false,
                            "default-translation0" : 0.0,
                            "default-translation1" : 0.0,
                            "effectApplied" : "none"
                          },
                          "animationTracks" : {

                          }
                        },
                        {
                          "id" : 10,
                          "_type" : "ScreenVMFile",
                          "src" : 1,
                          "trackNumber" : 0,
                          "attributes" : {
                            "ident" : "02-20-01-MetodoIsLowerIsUpper-UP"
                          },
                          "parameters" : {
                            "cursorScale" : {
                              "type" : "double",
                              "defaultValue" : 0.0,
                              "interp" : "linr"
                            },
                            "cursorOpacity" : {
                              "type" : "double",
                              "defaultValue" : 0.0,
                              "interp" : "linr"
                            }
                          },
                          "effects" : [

                          ],
                          "start" : 1186,
                          "duration" : 50,
                          "mediaStart" : 2190,
                          "mediaDuration" : 50,
                          "scalar" : 1,
                          "metadata" : {
                            "AutoAppliedSmartFocus" : "False",
                            "clipSpeedAttribute" : false,
                            "default-translation0" : 0.0,
                            "default-translation1" : 0.0,
                            "effectApplied" : "none"
                          },
                          "animationTracks" : {

                          }
                        },
                        {
                          "id" : 11,
                          "_type" : "ScreenVMFile",
                          "src" : 1,
                          "trackNumber" : 0,
                          "attributes" : {
                            "ident" : "02-20-01-MetodoIsLowerIsUpper-UP"
                          },
                          "parameters" : {
                            "cursorScale" : {
                              "type" : "double",
                              "defaultValue" : 0.0,
                              "interp" : "linr"
                            },
                            "cursorOpacity" : {
                              "type" : "double",
                              "defaultValue" : 0.0,
                              "interp" : "linr"
                            }
                          },
                          "effects" : [

                          ],
                          "start" : 1236,
                          "duration" : 134,
                          "mediaStart" : 2271,
                          "mediaDuration" : 134,
                          "scalar" : 1,
                          "metadata" : {
                            "AutoAppliedSmartFocus" : "False",
                            "clipSpeedAttribute" : false,
                            "default-translation0" : 0.0,
                            "default-translation1" : 0.0,
                            "effectApplied" : "none"
                          },
                          "animationTracks" : {

                          }
                        },
                        {
                          "id" : 12,
                          "_type" : "ScreenVMFile",
                          "src" : 1,
                          "trackNumber" : 0,
                          "attributes" : {
                            "ident" : "02-20-01-MetodoIsLowerIsUpper-UP"
                          },
                          "parameters" : {
                            "cursorScale" : {
                              "type" : "double",
                              "defaultValue" : 0.0,
                              "interp" : "linr"
                            },
                            "cursorOpacity" : {
                              "type" : "double",
                              "defaultValue" : 0.0,
                              "interp" : "linr"
                            }
                          },
                          "effects" : [

                          ],
                          "start" : 1370,
                          "duration" : 643,
                          "mediaStart" : 2507,
                          "mediaDuration" : 643,
                          "scalar" : 1,
                          "metadata" : {
                            "AutoAppliedSmartFocus" : "False",
                            "clipSpeedAttribute" : false,
                            "default-translation0" : 0.0,
                            "default-translation1" : 0.0,
                            "effectApplied" : "none"
                          },
                          "animationTracks" : {

                          }
                        },
                        {
                          "id" : 13,
                          "_type" : "ScreenVMFile",
                          "src" : 1,
                          "trackNumber" : 0,
                          "attributes" : {
                            "ident" : "02-20-01-MetodoIsLowerIsUpper-UP"
                          },
                          "parameters" : {
                            "cursorScale" : {
                              "type" : "double",
                              "defaultValue" : 0.0,
                              "interp" : "linr"
                            },
                            "cursorOpacity" : {
                              "type" : "double",
                              "defaultValue" : 0.0,
                              "interp" : "linr"
                            }
                          },
                          "effects" : [

                          ],
                          "start" : 2013,
                          "duration" : 41,
                          "mediaStart" : 3183,
                          "mediaDuration" : 41,
                          "scalar" : 1,
                          "metadata" : {
                            "AutoAppliedSmartFocus" : "False",
                            "clipSpeedAttribute" : false,
                            "default-translation0" : 0.0,
                            "default-translation1" : 0.0,
                            "effectApplied" : "none"
                          },
                          "animationTracks" : {

                          }
                        },
                        {
                          "id" : 14,
                          "_type" : "ScreenVMFile",
                          "src" : 1,
                          "trackNumber" : 0,
                          "attributes" : {
                            "ident" : "02-20-01-MetodoIsLowerIsUpper-UP"
                          },
                          "parameters" : {
                            "cursorScale" : {
                              "type" : "double",
                              "defaultValue" : 0.0,
                              "interp" : "linr"
                            },
                            "cursorOpacity" : {
                              "type" : "double",
                              "defaultValue" : 0.0,
                              "interp" : "linr"
                            }
                          },
                          "effects" : [

                          ],
                          "start" : 2054,
                          "duration" : 162,
                          "mediaStart" : 3279,
                          "mediaDuration" : 162,
                          "scalar" : 1,
                          "metadata" : {
                            "AutoAppliedSmartFocus" : "False",
                            "clipSpeedAttribute" : false,
                            "default-translation0" : 0.0,
                            "default-translation1" : 0.0,
                            "effectApplied" : "none"
                          },
                          "animationTracks" : {

                          }
                        },
                        {
                          "id" : 15,
                          "_type" : "ScreenVMFile",
                          "src" : 1,
                          "trackNumber" : 0,
                          "attributes" : {
                            "ident" : "02-20-01-MetodoIsLowerIsUpper-UP"
                          },
                          "parameters" : {
                            "cursorScale" : {
                              "type" : "double",
                              "defaultValue" : 0.0,
                              "interp" : "linr"
                            },
                            "cursorOpacity" : {
                              "type" : "double",
                              "defaultValue" : 0.0,
                              "interp" : "linr"
                            }
                          },
                          "effects" : [

                          ],
                          "start" : 2216,
                          "duration" : 130,
                          "mediaStart" : 3537,
                          "mediaDuration" : 130,
                          "scalar" : 1,
                          "metadata" : {
                            "AutoAppliedSmartFocus" : "False",
                            "clipSpeedAttribute" : false,
                            "default-translation0" : 0.0,
                            "default-translation1" : 0.0,
                            "effectApplied" : "none"
                          },
                          "animationTracks" : {

                          }
                        },
                        {
                          "id" : 16,
                          "_type" : "ScreenVMFile",
                          "src" : 1,
                          "trackNumber" : 0,
                          "attributes" : {
                            "ident" : "02-20-01-MetodoIsLowerIsUpper-UP"
                          },
                          "parameters" : {
                            "cursorScale" : {
                              "type" : "double",
                              "defaultValue" : 0.0,
                              "interp" : "linr"
                            },
                            "cursorOpacity" : {
                              "type" : "double",
                              "defaultValue" : 0.0,
                              "interp" : "linr"
                            }
                          },
                          "effects" : [

                          ],
                          "start" : 2346,
                          "duration" : 444,
                          "mediaStart" : 3738,
                          "mediaDuration" : 444,
                          "scalar" : 1,
                          "metadata" : {
                            "AutoAppliedSmartFocus" : "False",
                            "clipSpeedAttribute" : false,
                            "default-translation0" : 0.0,
                            "default-translation1" : 0.0,
                            "effectApplied" : "none"
                          },
                          "animationTracks" : {

                          }
                        },
                        {
                          "id" : 17,
                          "_type" : "ScreenVMFile",
                          "src" : 1,
                          "trackNumber" : 0,
                          "attributes" : {
                            "ident" : "02-20-01-MetodoIsLowerIsUpper-UP"
                          },
                          "parameters" : {
                            "cursorScale" : {
                              "type" : "double",
                              "defaultValue" : 0.0,
                              "interp" : "linr"
                            },
                            "cursorOpacity" : {
                              "type" : "double",
                              "defaultValue" : 0.0,
                              "interp" : "linr"
                            }
                          },
                          "effects" : [

                          ],
                          "start" : 2790,
                          "duration" : 140,
                          "mediaStart" : 4237,
                          "mediaDuration" : 140,
                          "scalar" : 1,
                          "metadata" : {
                            "AutoAppliedSmartFocus" : "False",
                            "clipSpeedAttribute" : false,
                            "default-translation0" : 0.0,
                            "default-translation1" : 0.0,
                            "effectApplied" : "none"
                          },
                          "animationTracks" : {

                          }
                        },
                        {
                          "id" : 18,
                          "_type" : "ScreenVMFile",
                          "src" : 1,
                          "trackNumber" : 0,
                          "attributes" : {
                            "ident" : "02-20-01-MetodoIsLowerIsUpper-UP"
                          },
                          "parameters" : {
                            "cursorScale" : {
                              "type" : "double",
                              "defaultValue" : 0.0,
                              "interp" : "linr"
                            },
                            "cursorOpacity" : {
                              "type" : "double",
                              "defaultValue" : 0.0,
                              "interp" : "linr"
                            }
                          },
                          "effects" : [

                          ],
                          "start" : 2930,
                          "duration" : 104,
                          "mediaStart" : 4421,
                          "mediaDuration" : 104,
                          "scalar" : 1,
                          "metadata" : {
                            "AutoAppliedSmartFocus" : "False",
                            "clipSpeedAttribute" : false,
                            "default-translation0" : 0.0,
                            "default-translation1" : 0.0,
                            "effectApplied" : "none"
                          },
                          "animationTracks" : {

                          }
                        },
                        {
                          "id" : 19,
                          "_type" : "ScreenVMFile",
                          "src" : 1,
                          "trackNumber" : 0,
                          "attributes" : {
                            "ident" : "02-20-01-MetodoIsLowerIsUpper-UP"
                          },
                          "parameters" : {
                            "cursorScale" : {
                              "type" : "double",
                              "defaultValue" : 0.0,
                              "interp" : "linr"
                            },
                            "cursorOpacity" : {
                              "type" : "double",
                              "defaultValue" : 0.0,
                              "interp" : "linr"
                            }
                          },
                          "effects" : [

                          ],
                          "start" : 3034,
                          "duration" : 9,
                          "mediaStart" : 4554,
                          "mediaDuration" : 9,
                          "scalar" : 1,
                          "metadata" : {
                            "AutoAppliedSmartFocus" : "False",
                            "clipSpeedAttribute" : false,
                            "default-translation0" : 0.0,
                            "default-translation1" : 0.0,
                            "effectApplied" : "none"
                          },
                          "animationTracks" : {

                          }
                        },
                        {
                          "id" : 20,
                          "_type" : "ScreenVMFile",
                          "src" : 1,
                          "trackNumber" : 0,
                          "attributes" : {
                            "ident" : "02-20-01-MetodoIsLowerIsUpper-UP"
                          },
                          "parameters" : {
                            "cursorScale" : {
                              "type" : "double",
                              "defaultValue" : 0.0,
                              "interp" : "linr"
                            },
                            "cursorOpacity" : {
                              "type" : "double",
                              "defaultValue" : 0.0,
                              "interp" : "linr"
                            }
                          },
                          "effects" : [

                          ],
                          "start" : 3043,
                          "duration" : 226,
                          "mediaStart" : 4853,
                          "mediaDuration" : 226,
                          "scalar" : 1,
                          "metadata" : {
                            "AutoAppliedSmartFocus" : "False",
                            "clipSpeedAttribute" : false,
                            "default-translation0" : 0.0,
                            "default-translation1" : 0.0,
                            "effectApplied" : "none"
                          },
                          "animationTracks" : {

                          }
                        },
                        {
                          "id" : 21,
                          "_type" : "ScreenVMFile",
                          "src" : 1,
                          "trackNumber" : 0,
                          "attributes" : {
                            "ident" : "02-20-01-MetodoIsLowerIsUpper-UP"
                          },
                          "parameters" : {
                            "cursorScale" : {
                              "type" : "double",
                              "defaultValue" : 0.0,
                              "interp" : "linr"
                            },
                            "cursorOpacity" : {
                              "type" : "double",
                              "defaultValue" : 0.0,
                              "interp" : "linr"
                            }
                          },
                          "effects" : [

                          ],
                          "start" : 3269,
                          "duration" : 44,
                          "mediaStart" : 5145,
                          "mediaDuration" : 44,
                          "scalar" : 1,
                          "metadata" : {
                            "AutoAppliedSmartFocus" : "False",
                            "clipSpeedAttribute" : false,
                            "default-translation0" : 0.0,
                            "default-translation1" : 0.0,
                            "effectApplied" : "none"
                          },
                          "animationTracks" : {

                          }
                        },
                        {
                          "id" : 22,
                          "_type" : "ScreenVMFile",
                          "src" : 1,
                          "trackNumber" : 0,
                          "attributes" : {
                            "ident" : "02-20-01-MetodoIsLowerIsUpper-UP"
                          },
                          "parameters" : {
                            "cursorScale" : {
                              "type" : "double",
                              "defaultValue" : 0.0,
                              "interp" : "linr"
                            },
                            "cursorOpacity" : {
                              "type" : "double",
                              "defaultValue" : 0.0,
                              "interp" : "linr"
                            }
                          },
                          "effects" : [

                          ],
                          "start" : 3313,
                          "duration" : 151,
                          "mediaStart" : 5227,
                          "mediaDuration" : 151,
                          "scalar" : 1,
                          "metadata" : {
                            "AutoAppliedSmartFocus" : "False",
                            "clipSpeedAttribute" : false,
                            "default-translation0" : 0.0,
                            "default-translation1" : 0.0,
                            "effectApplied" : "none"
                          },
                          "animationTracks" : {

                          }
                        },
                        {
                          "id" : 23,
                          "_type" : "ScreenVMFile",
                          "src" : 1,
                          "trackNumber" : 0,
                          "attributes" : {
                            "ident" : "02-20-01-MetodoIsLowerIsUpper-UP"
                          },
                          "parameters" : {
                            "cursorScale" : {
                              "type" : "double",
                              "defaultValue" : 0.0,
                              "interp" : "linr"
                            },
                            "cursorOpacity" : {
                              "type" : "double",
                              "defaultValue" : 0.0,
                              "interp" : "linr"
                            }
                          },
                          "effects" : [

                          ],
                          "start" : 3464,
                          "duration" : 54,
                          "mediaStart" : 5476,
                          "mediaDuration" : 54,
                          "scalar" : 1,
                          "metadata" : {
                            "AutoAppliedSmartFocus" : "False",
                            "clipSpeedAttribute" : false,
                            "default-translation0" : 0.0,
                            "default-translation1" : 0.0,
                            "effectApplied" : "none"
                          },
                          "animationTracks" : {

                          }
                        },
                        {
                          "id" : 24,
                          "_type" : "ScreenVMFile",
                          "src" : 1,
                          "trackNumber" : 0,
                          "attributes" : {
                            "ident" : "02-20-01-MetodoIsLowerIsUpper-UP"
                          },
                          "parameters" : {
                            "cursorScale" : {
                              "type" : "double",
                              "defaultValue" : 0.0,
                              "interp" : "linr"
                            },
                            "cursorOpacity" : {
                              "type" : "double",
                              "defaultValue" : 0.0,
                              "interp" : "linr"
                            }
                          },
                          "effects" : [

                          ],
                          "start" : 3518,
                          "duration" : 159,
                          "mediaStart" : 5568,
                          "mediaDuration" : 159,
                          "scalar" : 1,
                          "metadata" : {
                            "AutoAppliedSmartFocus" : "False",
                            "clipSpeedAttribute" : false,
                            "default-translation0" : 0.0,
                            "default-translation1" : 0.0,
                            "effectApplied" : "none"
                          },
                          "animationTracks" : {

                          }
                        },
                        {
                          "id" : 25,
                          "_type" : "ScreenVMFile",
                          "src" : 1,
                          "trackNumber" : 0,
                          "attributes" : {
                            "ident" : "02-20-01-MetodoIsLowerIsUpper-UP"
                          },
                          "parameters" : {
                            "cursorScale" : {
                              "type" : "double",
                              "defaultValue" : 0.0,
                              "interp" : "linr"
                            },
                            "cursorOpacity" : {
                              "type" : "double",
                              "defaultValue" : 0.0,
                              "interp" : "linr"
                            }
                          },
                          "effects" : [

                          ],
                          "start" : 3677,
                          "duration" : 621,
                          "mediaStart" : 6051,
                          "mediaDuration" : 621,
                          "scalar" : 1,
                          "metadata" : {
                            "AutoAppliedSmartFocus" : "False",
                            "clipSpeedAttribute" : false,
                            "default-translation0" : 0.0,
                            "default-translation1" : 0.0,
                            "effectApplied" : "none"
                          },
                          "animationTracks" : {

                          }
                        }
                    ],
                    "effects" : [

                    ],
                    "start" : 0,
                    "duration" : 3968,
                    "mediaStart" : 281,
                    "mediaDuration" : 3968,
                    "scalar" : 1,
                    "metadata" : {
                      "AutoAppliedSmartFocus" : "False",
                      "clipSpeedAttribute" : false,
                      "effectApplied" : "none"
                    },
                    "animationTracks" : {

                    }
                  }
                ],
                "transitions" : [
                  {
                    "name" : "FadeThroughBlack",
                    "duration" : 30,
                    "trivial" : false,
                    "reverse" : false,
                    "useAudioPreRoll" : true,
                    "useVisualPreRoll" : true,
                    "leftMedia" : 3
                  }
                ]
              },
              {
                "trackIndex" : 1,
                "medias" : [
                  {
                    "id" : 26,
                    "_type" : "StitchedMedia",
                    "minMediaStart" : 0,
                    "attributes" : {
                      "ident" : "02-20-01-MetodoIsLowerIsUpper-UP",
                      "gain" : 1.0,
                      "mixToMono" : false
                    },
                    "parameters" : {
                      "translation0" : {
                        "type" : "double",
                        "defaultValue" : 509.999999999802,
                        "interp" : "eioe"
                      },
                      "translation1" : {
                        "type" : "double",
                        "defaultValue" : -216.000000000099,
                        "interp" : "eioe"
                      },
                      "rotation1" : {
                        "type" : "double",
                        "defaultValue" : 3.14159265358979,
                        "interp" : "eioe"
                      },
                      "scale0" : {
                        "type" : "double",
                        "defaultValue" : 0.4,
                        "interp" : "eioe"
                      },
                      "scale1" : {
                        "type" : "double",
                        "defaultValue" : 0.4,
                        "interp" : "eioe"
                      },
                      "geometryCrop0" : {
                        "type" : "double",
                        "defaultValue" : 314.999999998896,
                        "interp" : "linr"
                      },
                      "geometryCrop1" : {
                        "type" : "double",
                        "defaultValue" : 64.9999999999766,
                        "interp" : "linr"
                      },
                      "geometryCrop2" : {
                        "type" : "double",
                        "defaultValue" : 207.500000001029,
                        "interp" : "linr"
                      },
                      "volume" : {
                        "type" : "double",
                        "keyframes" : [
                          {
                            "endTime" : 0,
                            "time" : 0,
                            "value" : 1.0,
                            "duration" : 0
                          },
                          {
                            "endTime" : 1520,
                            "time" : 1520,
                            "value" : 1.0,
                            "duration" : 0
                          },
                          {
                            "endTime" : 1521,
                            "time" : 1521,
                            "value" : 0.0,
                            "duration" : 0
                          },
                          {
                            "endTime" : 1530,
                            "time" : 1530,
                            "value" : 0.0,
                            "duration" : 0
                          },
                          {
                            "endTime" : 1531,
                            "time" : 1531,
                            "value" : 1.0,
                            "duration" : 0
                          },
                          {
                            "endTime" : 1616,
                            "time" : 1616,
                            "value" : 1.0,
                            "duration" : 0
                          },
                          {
                            "endTime" : 1617,
                            "time" : 1617,
                            "value" : 0.0,
                            "duration" : 0
                          },
                          {
                            "endTime" : 1624,
                            "time" : 1624,
                            "value" : 0.0,
                            "duration" : 0
                          },
                          {
                            "endTime" : 1625,
                            "time" : 1625,
                            "value" : 1.0,
                            "duration" : 0
                          }
                        ]
                      },
                      "cursorOpacity" : {
                        "type" : "double",
                        "defaultValue" : 1.0,
                        "interp" : "linr"
                      },
                      "cursorScale" : {
                        "type" : "double",
                        "defaultValue" : 1.0,
                        "interp" : "linr"
                      }
                    },
                    "medias" : [
                        {
                          "id" : 27,
                          "_type" : "UnifiedMedia",
                          "video" : 
                              {
                                "id" : 28,
                                "_type" : "VMFile",
                                "src" : 1,
                                "trackNumber" : 1,
                                "attributes" : {
                                  "ident" : "02-20-01-MetodoIsLowerIsUpper-UP"
                                },
                                "effects" : [

                                ],
                                "start" : 0,
                                "duration" : 344,
                                "mediaStart" : 0,
                                "mediaDuration" : 344,
                                "scalar" : 1,
                                "animationTracks" : {

                                }
                              },
                          "audio" : 
                              {
                                "id" : 29,
                                "_type" : "AMFile",
                                "src" : 1,
                                "trackNumber" : 2,
                                "attributes" : {
                                  "ident" : "",
                                  "gain" : 1.0,
                                  "mixToMono" : false
                                },
                                  "channelNumber" : "0,1",
                                "effects" : [

                                ],
                                "start" : 0,
                                "duration" : 344,
                                "mediaStart" : 0,
                                "mediaDuration" : 344,
                                "scalar" : 1,
                                "animationTracks" : {

                                }
                              }
,
                          "start" : 0,
                          "duration" : 344,
                          "mediaStart" : 0,
                          "mediaDuration" : 6661,
                          "scalar" : 1,
                          "metadata" : {
                            "clipSpeedAttribute" : false,
                            "default-rotation1" : 0.0,
                            "default-scale0" : 0.25,
                            "default-scale1" : 0.25,
                            "default-translation0" : 480.0,
                            "default-translation1" : -270.0,
                            "effectApplied" : "none"
                          }
                        },
                        {
                          "id" : 30,
                          "_type" : "UnifiedMedia",
                          "video" : 
                              {
                                "id" : 31,
                                "_type" : "VMFile",
                                "src" : 1,
                                "trackNumber" : 1,
                                "attributes" : {
                                  "ident" : "02-20-01-MetodoIsLowerIsUpper-UP"
                                },
                                "effects" : [

                                ],
                                "start" : 344,
                                "duration" : 176,
                                "mediaStart" : 482,
                                "mediaDuration" : 176,
                                "scalar" : 1,
                                "animationTracks" : {

                                }
                              },
                          "audio" : 
                              {
                                "id" : 32,
                                "_type" : "AMFile",
                                "src" : 1,
                                "trackNumber" : 2,
                                "attributes" : {
                                  "ident" : "",
                                  "gain" : 1.0,
                                  "mixToMono" : false
                                },
                                  "channelNumber" : "0,1",
                                "effects" : [

                                ],
                                "start" : 344,
                                "duration" : 176,
                                "mediaStart" : 482,
                                "mediaDuration" : 176,
                                "scalar" : 1,
                                "animationTracks" : {

                                }
                              }
,
                          "start" : 344,
                          "duration" : 176,
                          "mediaStart" : 0,
                          "mediaDuration" : 6661,
                          "scalar" : 1,
                          "metadata" : {
                            "clipSpeedAttribute" : false,
                            "default-rotation1" : 0.0,
                            "default-scale0" : 0.25,
                            "default-scale1" : 0.25,
                            "default-translation0" : 480.0,
                            "default-translation1" : -270.0,
                            "effectApplied" : "none"
                          }
                        },
                        {
                          "id" : 33,
                          "_type" : "UnifiedMedia",
                          "video" : 
                              {
                                "id" : 34,
                                "_type" : "VMFile",
                                "src" : 1,
                                "trackNumber" : 1,
                                "attributes" : {
                                  "ident" : "02-20-01-MetodoIsLowerIsUpper-UP"
                                },
                                "effects" : [

                                ],
                                "start" : 520,
                                "duration" : 96,
                                "mediaStart" : 1217,
                                "mediaDuration" : 96,
                                "scalar" : 1,
                                "animationTracks" : {

                                }
                              },
                          "audio" : 
                              {
                                "id" : 35,
                                "_type" : "AMFile",
                                "src" : 1,
                                "trackNumber" : 2,
                                "attributes" : {
                                  "ident" : "",
                                  "gain" : 1.0,
                                  "mixToMono" : false
                                },
                                  "channelNumber" : "0,1",
                                "effects" : [

                                ],
                                "start" : 520,
                                "duration" : 96,
                                "mediaStart" : 1217,
                                "mediaDuration" : 96,
                                "scalar" : 1,
                                "animationTracks" : {

                                }
                              }
,
                          "start" : 520,
                          "duration" : 96,
                          "mediaStart" : 0,
                          "mediaDuration" : 6661,
                          "scalar" : 1,
                          "metadata" : {
                            "clipSpeedAttribute" : false,
                            "default-rotation1" : 0.0,
                            "default-scale0" : 0.25,
                            "default-scale1" : 0.25,
                            "default-translation0" : 480.0,
                            "default-translation1" : -270.0,
                            "effectApplied" : "none"
                          }
                        },
                        {
                          "id" : 36,
                          "_type" : "UnifiedMedia",
                          "video" : 
                              {
                                "id" : 37,
                                "_type" : "VMFile",
                                "src" : 1,
                                "trackNumber" : 1,
                                "attributes" : {
                                  "ident" : "02-20-01-MetodoIsLowerIsUpper-UP"
                                },
                                "effects" : [

                                ],
                                "start" : 616,
                                "duration" : 457,
                                "mediaStart" : 1427,
                                "mediaDuration" : 457,
                                "scalar" : 1,
                                "animationTracks" : {

                                }
                              },
                          "audio" : 
                              {
                                "id" : 38,
                                "_type" : "AMFile",
                                "src" : 1,
                                "trackNumber" : 2,
                                "attributes" : {
                                  "ident" : "",
                                  "gain" : 1.0,
                                  "mixToMono" : false
                                },
                                  "channelNumber" : "0,1",
                                "effects" : [

                                ],
                                "start" : 616,
                                "duration" : 457,
                                "mediaStart" : 1427,
                                "mediaDuration" : 457,
                                "scalar" : 1,
                                "animationTracks" : {

                                }
                              }
,
                          "start" : 616,
                          "duration" : 457,
                          "mediaStart" : 0,
                          "mediaDuration" : 6661,
                          "scalar" : 1,
                          "metadata" : {
                            "clipSpeedAttribute" : false,
                            "default-rotation1" : 0.0,
                            "default-scale0" : 0.25,
                            "default-scale1" : 0.25,
                            "default-translation0" : 480.0,
                            "default-translation1" : -270.0,
                            "effectApplied" : "none"
                          }
                        },
                        {
                          "id" : 39,
                          "_type" : "UnifiedMedia",
                          "video" : 
                              {
                                "id" : 40,
                                "_type" : "VMFile",
                                "src" : 1,
                                "trackNumber" : 1,
                                "attributes" : {
                                  "ident" : "02-20-01-MetodoIsLowerIsUpper-UP"
                                },
                                "effects" : [

                                ],
                                "start" : 1073,
                                "duration" : 2,
                                "mediaStart" : 1904,
                                "mediaDuration" : 2,
                                "scalar" : 1,
                                "animationTracks" : {

                                }
                              },
                          "audio" : 
                              {
                                "id" : 41,
                                "_type" : "AMFile",
                                "src" : 1,
                                "trackNumber" : 2,
                                "attributes" : {
                                  "ident" : "",
                                  "gain" : 1.0,
                                  "mixToMono" : false
                                },
                                  "channelNumber" : "0,1",
                                "effects" : [

                                ],
                                "start" : 1073,
                                "duration" : 2,
                                "mediaStart" : 1904,
                                "mediaDuration" : 2,
                                "scalar" : 1,
                                "animationTracks" : {

                                }
                              }
,
                          "start" : 1073,
                          "duration" : 2,
                          "mediaStart" : 0,
                          "mediaDuration" : 6661,
                          "scalar" : 1,
                          "metadata" : {
                            "clipSpeedAttribute" : false,
                            "default-rotation1" : 0.0,
                            "default-scale0" : 0.25,
                            "default-scale1" : 0.25,
                            "default-translation0" : 480.0,
                            "default-translation1" : -270.0,
                            "effectApplied" : "none"
                          }
                        },
                        {
                          "id" : 42,
                          "_type" : "UnifiedMedia",
                          "video" : 
                              {
                                "id" : 43,
                                "_type" : "VMFile",
                                "src" : 1,
                                "trackNumber" : 1,
                                "attributes" : {
                                  "ident" : "02-20-01-MetodoIsLowerIsUpper-UP"
                                },
                                "effects" : [

                                ],
                                "start" : 1075,
                                "duration" : 111,
                                "mediaStart" : 1980,
                                "mediaDuration" : 111,
                                "scalar" : 1,
                                "animationTracks" : {

                                }
                              },
                          "audio" : 
                              {
                                "id" : 44,
                                "_type" : "AMFile",
                                "src" : 1,
                                "trackNumber" : 2,
                                "attributes" : {
                                  "ident" : "",
                                  "gain" : 1.0,
                                  "mixToMono" : false
                                },
                                  "channelNumber" : "0,1",
                                "effects" : [

                                ],
                                "start" : 1075,
                                "duration" : 111,
                                "mediaStart" : 1980,
                                "mediaDuration" : 111,
                                "scalar" : 1,
                                "animationTracks" : {

                                }
                              }
,
                          "start" : 1075,
                          "duration" : 111,
                          "mediaStart" : 0,
                          "mediaDuration" : 6661,
                          "scalar" : 1,
                          "metadata" : {
                            "clipSpeedAttribute" : false,
                            "default-rotation1" : 0.0,
                            "default-scale0" : 0.25,
                            "default-scale1" : 0.25,
                            "default-translation0" : 480.0,
                            "default-translation1" : -270.0,
                            "effectApplied" : "none"
                          }
                        },
                        {
                          "id" : 45,
                          "_type" : "UnifiedMedia",
                          "video" : 
                              {
                                "id" : 46,
                                "_type" : "VMFile",
                                "src" : 1,
                                "trackNumber" : 1,
                                "attributes" : {
                                  "ident" : "02-20-01-MetodoIsLowerIsUpper-UP"
                                },
                                "effects" : [

                                ],
                                "start" : 1186,
                                "duration" : 50,
                                "mediaStart" : 2190,
                                "mediaDuration" : 50,
                                "scalar" : 1,
                                "animationTracks" : {

                                }
                              },
                          "audio" : 
                              {
                                "id" : 47,
                                "_type" : "AMFile",
                                "src" : 1,
                                "trackNumber" : 2,
                                "attributes" : {
                                  "ident" : "",
                                  "gain" : 1.0,
                                  "mixToMono" : false
                                },
                                  "channelNumber" : "0,1",
                                "effects" : [

                                ],
                                "start" : 1186,
                                "duration" : 50,
                                "mediaStart" : 2190,
                                "mediaDuration" : 50,
                                "scalar" : 1,
                                "animationTracks" : {

                                }
                              }
,
                          "start" : 1186,
                          "duration" : 50,
                          "mediaStart" : 0,
                          "mediaDuration" : 6661,
                          "scalar" : 1,
                          "metadata" : {
                            "clipSpeedAttribute" : false,
                            "default-rotation1" : 0.0,
                            "default-scale0" : 0.25,
                            "default-scale1" : 0.25,
                            "default-translation0" : 480.0,
                            "default-translation1" : -270.0,
                            "effectApplied" : "none"
                          }
                        },
                        {
                          "id" : 48,
                          "_type" : "UnifiedMedia",
                          "video" : 
                              {
                                "id" : 49,
                                "_type" : "VMFile",
                                "src" : 1,
                                "trackNumber" : 1,
                                "attributes" : {
                                  "ident" : "02-20-01-MetodoIsLowerIsUpper-UP"
                                },
                                "effects" : [

                                ],
                                "start" : 1236,
                                "duration" : 134,
                                "mediaStart" : 2271,
                                "mediaDuration" : 134,
                                "scalar" : 1,
                                "animationTracks" : {

                                }
                              },
                          "audio" : 
                              {
                                "id" : 50,
                                "_type" : "AMFile",
                                "src" : 1,
                                "trackNumber" : 2,
                                "attributes" : {
                                  "ident" : "",
                                  "gain" : 1.0,
                                  "mixToMono" : false
                                },
                                  "channelNumber" : "0,1",
                                "effects" : [

                                ],
                                "start" : 1236,
                                "duration" : 134,
                                "mediaStart" : 2271,
                                "mediaDuration" : 134,
                                "scalar" : 1,
                                "animationTracks" : {

                                }
                              }
,
                          "start" : 1236,
                          "duration" : 134,
                          "mediaStart" : 0,
                          "mediaDuration" : 6661,
                          "scalar" : 1,
                          "metadata" : {
                            "clipSpeedAttribute" : false,
                            "default-rotation1" : 0.0,
                            "default-scale0" : 0.25,
                            "default-scale1" : 0.25,
                            "default-translation0" : 480.0,
                            "default-translation1" : -270.0,
                            "effectApplied" : "none"
                          }
                        },
                        {
                          "id" : 51,
                          "_type" : "UnifiedMedia",
                          "video" : 
                              {
                                "id" : 52,
                                "_type" : "VMFile",
                                "src" : 1,
                                "trackNumber" : 1,
                                "attributes" : {
                                  "ident" : "02-20-01-MetodoIsLowerIsUpper-UP"
                                },
                                "effects" : [

                                ],
                                "start" : 1370,
                                "duration" : 643,
                                "mediaStart" : 2507,
                                "mediaDuration" : 643,
                                "scalar" : 1,
                                "animationTracks" : {

                                }
                              },
                          "audio" : 
                              {
                                "id" : 53,
                                "_type" : "AMFile",
                                "src" : 1,
                                "trackNumber" : 2,
                                "attributes" : {
                                  "ident" : "",
                                  "gain" : 1.0,
                                  "mixToMono" : false
                                },
                                  "channelNumber" : "0,1",
                                "effects" : [

                                ],
                                "start" : 1370,
                                "duration" : 643,
                                "mediaStart" : 2507,
                                "mediaDuration" : 643,
                                "scalar" : 1,
                                "animationTracks" : {

                                }
                              }
,
                          "start" : 1370,
                          "duration" : 643,
                          "mediaStart" : 0,
                          "mediaDuration" : 6661,
                          "scalar" : 1,
                          "metadata" : {
                            "clipSpeedAttribute" : false,
                            "default-rotation1" : 0.0,
                            "default-scale0" : 0.25,
                            "default-scale1" : 0.25,
                            "default-translation0" : 480.0,
                            "default-translation1" : -270.0,
                            "effectApplied" : "none"
                          }
                        },
                        {
                          "id" : 54,
                          "_type" : "UnifiedMedia",
                          "video" : 
                              {
                                "id" : 55,
                                "_type" : "VMFile",
                                "src" : 1,
                                "trackNumber" : 1,
                                "attributes" : {
                                  "ident" : "02-20-01-MetodoIsLowerIsUpper-UP"
                                },
                                "effects" : [

                                ],
                                "start" : 2013,
                                "duration" : 41,
                                "mediaStart" : 3183,
                                "mediaDuration" : 41,
                                "scalar" : 1,
                                "animationTracks" : {

                                }
                              },
                          "audio" : 
                              {
                                "id" : 56,
                                "_type" : "AMFile",
                                "src" : 1,
                                "trackNumber" : 2,
                                "attributes" : {
                                  "ident" : "",
                                  "gain" : 1.0,
                                  "mixToMono" : false
                                },
                                  "channelNumber" : "0,1",
                                "effects" : [

                                ],
                                "start" : 2013,
                                "duration" : 41,
                                "mediaStart" : 3183,
                                "mediaDuration" : 41,
                                "scalar" : 1,
                                "animationTracks" : {

                                }
                              }
,
                          "start" : 2013,
                          "duration" : 41,
                          "mediaStart" : 0,
                          "mediaDuration" : 6661,
                          "scalar" : 1,
                          "metadata" : {
                            "clipSpeedAttribute" : false,
                            "default-rotation1" : 0.0,
                            "default-scale0" : 0.25,
                            "default-scale1" : 0.25,
                            "default-translation0" : 480.0,
                            "default-translation1" : -270.0,
                            "effectApplied" : "none"
                          }
                        },
                        {
                          "id" : 57,
                          "_type" : "UnifiedMedia",
                          "video" : 
                              {
                                "id" : 58,
                                "_type" : "VMFile",
                                "src" : 1,
                                "trackNumber" : 1,
                                "attributes" : {
                                  "ident" : "02-20-01-MetodoIsLowerIsUpper-UP"
                                },
                                "effects" : [

                                ],
                                "start" : 2054,
                                "duration" : 162,
                                "mediaStart" : 3279,
                                "mediaDuration" : 162,
                                "scalar" : 1,
                                "animationTracks" : {

                                }
                              },
                          "audio" : 
                              {
                                "id" : 59,
                                "_type" : "AMFile",
                                "src" : 1,
                                "trackNumber" : 2,
                                "attributes" : {
                                  "ident" : "",
                                  "gain" : 1.0,
                                  "mixToMono" : false
                                },
                                  "channelNumber" : "0,1",
                                "effects" : [

                                ],
                                "start" : 2054,
                                "duration" : 162,
                                "mediaStart" : 3279,
                                "mediaDuration" : 162,
                                "scalar" : 1,
                                "animationTracks" : {

                                }
                              }
,
                          "start" : 2054,
                          "duration" : 162,
                          "mediaStart" : 0,
                          "mediaDuration" : 6661,
                          "scalar" : 1,
                          "metadata" : {
                            "clipSpeedAttribute" : false,
                            "default-rotation1" : 0.0,
                            "default-scale0" : 0.25,
                            "default-scale1" : 0.25,
                            "default-translation0" : 480.0,
                            "default-translation1" : -270.0,
                            "effectApplied" : "none"
                          }
                        },
                        {
                          "id" : 60,
                          "_type" : "UnifiedMedia",
                          "video" : 
                              {
                                "id" : 61,
                                "_type" : "VMFile",
                                "src" : 1,
                                "trackNumber" : 1,
                                "attributes" : {
                                  "ident" : "02-20-01-MetodoIsLowerIsUpper-UP"
                                },
                                "effects" : [

                                ],
                                "start" : 2216,
                                "duration" : 130,
                                "mediaStart" : 3537,
                                "mediaDuration" : 130,
                                "scalar" : 1,
                                "animationTracks" : {

                                }
                              },
                          "audio" : 
                              {
                                "id" : 62,
                                "_type" : "AMFile",
                                "src" : 1,
                                "trackNumber" : 2,
                                "attributes" : {
                                  "ident" : "",
                                  "gain" : 1.0,
                                  "mixToMono" : false
                                },
                                  "channelNumber" : "0,1",
                                "effects" : [

                                ],
                                "start" : 2216,
                                "duration" : 130,
                                "mediaStart" : 3537,
                                "mediaDuration" : 130,
                                "scalar" : 1,
                                "animationTracks" : {

                                }
                              }
,
                          "start" : 2216,
                          "duration" : 130,
                          "mediaStart" : 0,
                          "mediaDuration" : 6661,
                          "scalar" : 1,
                          "metadata" : {
                            "clipSpeedAttribute" : false,
                            "default-rotation1" : 0.0,
                            "default-scale0" : 0.25,
                            "default-scale1" : 0.25,
                            "default-translation0" : 480.0,
                            "default-translation1" : -270.0,
                            "effectApplied" : "none"
                          }
                        },
                        {
                          "id" : 63,
                          "_type" : "UnifiedMedia",
                          "video" : 
                              {
                                "id" : 64,
                                "_type" : "VMFile",
                                "src" : 1,
                                "trackNumber" : 1,
                                "attributes" : {
                                  "ident" : "02-20-01-MetodoIsLowerIsUpper-UP"
                                },
                                "effects" : [

                                ],
                                "start" : 2346,
                                "duration" : 444,
                                "mediaStart" : 3738,
                                "mediaDuration" : 444,
                                "scalar" : 1,
                                "animationTracks" : {

                                }
                              },
                          "audio" : 
                              {
                                "id" : 65,
                                "_type" : "AMFile",
                                "src" : 1,
                                "trackNumber" : 2,
                                "attributes" : {
                                  "ident" : "",
                                  "gain" : 1.0,
                                  "mixToMono" : false
                                },
                                  "channelNumber" : "0,1",
                                "effects" : [

                                ],
                                "start" : 2346,
                                "duration" : 444,
                                "mediaStart" : 3738,
                                "mediaDuration" : 444,
                                "scalar" : 1,
                                "animationTracks" : {

                                }
                              }
,
                          "start" : 2346,
                          "duration" : 444,
                          "mediaStart" : 0,
                          "mediaDuration" : 6661,
                          "scalar" : 1,
                          "metadata" : {
                            "clipSpeedAttribute" : false,
                            "default-rotation1" : 0.0,
                            "default-scale0" : 0.25,
                            "default-scale1" : 0.25,
                            "default-translation0" : 480.0,
                            "default-translation1" : -270.0,
                            "effectApplied" : "none"
                          }
                        },
                        {
                          "id" : 66,
                          "_type" : "UnifiedMedia",
                          "video" : 
                              {
                                "id" : 67,
                                "_type" : "VMFile",
                                "src" : 1,
                                "trackNumber" : 1,
                                "attributes" : {
                                  "ident" : "02-20-01-MetodoIsLowerIsUpper-UP"
                                },
                                "effects" : [

                                ],
                                "start" : 2790,
                                "duration" : 140,
                                "mediaStart" : 4237,
                                "mediaDuration" : 140,
                                "scalar" : 1,
                                "animationTracks" : {

                                }
                              },
                          "audio" : 
                              {
                                "id" : 68,
                                "_type" : "AMFile",
                                "src" : 1,
                                "trackNumber" : 2,
                                "attributes" : {
                                  "ident" : "",
                                  "gain" : 1.0,
                                  "mixToMono" : false
                                },
                                  "channelNumber" : "0,1",
                                "effects" : [

                                ],
                                "start" : 2790,
                                "duration" : 140,
                                "mediaStart" : 4237,
                                "mediaDuration" : 140,
                                "scalar" : 1,
                                "animationTracks" : {

                                }
                              }
,
                          "start" : 2790,
                          "duration" : 140,
                          "mediaStart" : 0,
                          "mediaDuration" : 6661,
                          "scalar" : 1,
                          "metadata" : {
                            "clipSpeedAttribute" : false,
                            "default-rotation1" : 0.0,
                            "default-scale0" : 0.25,
                            "default-scale1" : 0.25,
                            "default-translation0" : 480.0,
                            "default-translation1" : -270.0,
                            "effectApplied" : "none"
                          }
                        },
                        {
                          "id" : 69,
                          "_type" : "UnifiedMedia",
                          "video" : 
                              {
                                "id" : 70,
                                "_type" : "VMFile",
                                "src" : 1,
                                "trackNumber" : 1,
                                "attributes" : {
                                  "ident" : "02-20-01-MetodoIsLowerIsUpper-UP"
                                },
                                "effects" : [

                                ],
                                "start" : 2930,
                                "duration" : 104,
                                "mediaStart" : 4421,
                                "mediaDuration" : 104,
                                "scalar" : 1,
                                "animationTracks" : {

                                }
                              },
                          "audio" : 
                              {
                                "id" : 71,
                                "_type" : "AMFile",
                                "src" : 1,
                                "trackNumber" : 2,
                                "attributes" : {
                                  "ident" : "",
                                  "gain" : 1.0,
                                  "mixToMono" : false
                                },
                                  "channelNumber" : "0,1",
                                "effects" : [

                                ],
                                "start" : 2930,
                                "duration" : 104,
                                "mediaStart" : 4421,
                                "mediaDuration" : 104,
                                "scalar" : 1,
                                "animationTracks" : {

                                }
                              }
,
                          "start" : 2930,
                          "duration" : 104,
                          "mediaStart" : 0,
                          "mediaDuration" : 6661,
                          "scalar" : 1,
                          "metadata" : {
                            "clipSpeedAttribute" : false,
                            "default-rotation1" : 0.0,
                            "default-scale0" : 0.25,
                            "default-scale1" : 0.25,
                            "default-translation0" : 480.0,
                            "default-translation1" : -270.0,
                            "effectApplied" : "none"
                          }
                        },
                        {
                          "id" : 72,
                          "_type" : "UnifiedMedia",
                          "video" : 
                              {
                                "id" : 73,
                                "_type" : "VMFile",
                                "src" : 1,
                                "trackNumber" : 1,
                                "attributes" : {
                                  "ident" : "02-20-01-MetodoIsLowerIsUpper-UP"
                                },
                                "effects" : [

                                ],
                                "start" : 3034,
                                "duration" : 9,
                                "mediaStart" : 4554,
                                "mediaDuration" : 9,
                                "scalar" : 1,
                                "animationTracks" : {

                                }
                              },
                          "audio" : 
                              {
                                "id" : 74,
                                "_type" : "AMFile",
                                "src" : 1,
                                "trackNumber" : 2,
                                "attributes" : {
                                  "ident" : "",
                                  "gain" : 1.0,
                                  "mixToMono" : false
                                },
                                  "channelNumber" : "0,1",
                                "effects" : [

                                ],
                                "start" : 3034,
                                "duration" : 9,
                                "mediaStart" : 4554,
                                "mediaDuration" : 9,
                                "scalar" : 1,
                                "animationTracks" : {

                                }
                              }
,
                          "start" : 3034,
                          "duration" : 9,
                          "mediaStart" : 0,
                          "mediaDuration" : 6661,
                          "scalar" : 1,
                          "metadata" : {
                            "clipSpeedAttribute" : false,
                            "default-rotation1" : 0.0,
                            "default-scale0" : 0.25,
                            "default-scale1" : 0.25,
                            "default-translation0" : 480.0,
                            "default-translation1" : -270.0,
                            "effectApplied" : "none"
                          }
                        },
                        {
                          "id" : 75,
                          "_type" : "UnifiedMedia",
                          "video" : 
                              {
                                "id" : 76,
                                "_type" : "VMFile",
                                "src" : 1,
                                "trackNumber" : 1,
                                "attributes" : {
                                  "ident" : "02-20-01-MetodoIsLowerIsUpper-UP"
                                },
                                "effects" : [

                                ],
                                "start" : 3043,
                                "duration" : 226,
                                "mediaStart" : 4853,
                                "mediaDuration" : 226,
                                "scalar" : 1,
                                "animationTracks" : {

                                }
                              },
                          "audio" : 
                              {
                                "id" : 77,
                                "_type" : "AMFile",
                                "src" : 1,
                                "trackNumber" : 2,
                                "attributes" : {
                                  "ident" : "",
                                  "gain" : 1.0,
                                  "mixToMono" : false
                                },
                                  "channelNumber" : "0,1",
                                "effects" : [

                                ],
                                "start" : 3043,
                                "duration" : 226,
                                "mediaStart" : 4853,
                                "mediaDuration" : 226,
                                "scalar" : 1,
                                "animationTracks" : {

                                }
                              }
,
                          "start" : 3043,
                          "duration" : 226,
                          "mediaStart" : 0,
                          "mediaDuration" : 6661,
                          "scalar" : 1,
                          "metadata" : {
                            "clipSpeedAttribute" : false,
                            "default-rotation1" : 0.0,
                            "default-scale0" : 0.25,
                            "default-scale1" : 0.25,
                            "default-translation0" : 480.0,
                            "default-translation1" : -270.0,
                            "effectApplied" : "none"
                          }
                        },
                        {
                          "id" : 78,
                          "_type" : "UnifiedMedia",
                          "video" : 
                              {
                                "id" : 79,
                                "_type" : "VMFile",
                                "src" : 1,
                                "trackNumber" : 1,
                                "attributes" : {
                                  "ident" : "02-20-01-MetodoIsLowerIsUpper-UP"
                                },
                                "effects" : [

                                ],
                                "start" : 3269,
                                "duration" : 44,
                                "mediaStart" : 5145,
                                "mediaDuration" : 44,
                                "scalar" : 1,
                                "animationTracks" : {

                                }
                              },
                          "audio" : 
                              {
                                "id" : 80,
                                "_type" : "AMFile",
                                "src" : 1,
                                "trackNumber" : 2,
                                "attributes" : {
                                  "ident" : "",
                                  "gain" : 1.0,
                                  "mixToMono" : false
                                },
                                  "channelNumber" : "0,1",
                                "effects" : [

                                ],
                                "start" : 3269,
                                "duration" : 44,
                                "mediaStart" : 5145,
                                "mediaDuration" : 44,
                                "scalar" : 1,
                                "animationTracks" : {

                                }
                              }
,
                          "start" : 3269,
                          "duration" : 44,
                          "mediaStart" : 0,
                          "mediaDuration" : 6661,
                          "scalar" : 1,
                          "metadata" : {
                            "clipSpeedAttribute" : false,
                            "default-rotation1" : 0.0,
                            "default-scale0" : 0.25,
                            "default-scale1" : 0.25,
                            "default-translation0" : 480.0,
                            "default-translation1" : -270.0,
                            "effectApplied" : "none"
                          }
                        },
                        {
                          "id" : 81,
                          "_type" : "UnifiedMedia",
                          "video" : 
                              {
                                "id" : 82,
                                "_type" : "VMFile",
                                "src" : 1,
                                "trackNumber" : 1,
                                "attributes" : {
                                  "ident" : "02-20-01-MetodoIsLowerIsUpper-UP"
                                },
                                "effects" : [

                                ],
                                "start" : 3313,
                                "duration" : 151,
                                "mediaStart" : 5227,
                                "mediaDuration" : 151,
                                "scalar" : 1,
                                "animationTracks" : {

                                }
                              },
                          "audio" : 
                              {
                                "id" : 83,
                                "_type" : "AMFile",
                                "src" : 1,
                                "trackNumber" : 2,
                                "attributes" : {
                                  "ident" : "",
                                  "gain" : 1.0,
                                  "mixToMono" : false
                                },
                                  "channelNumber" : "0,1",
                                "effects" : [

                                ],
                                "start" : 3313,
                                "duration" : 151,
                                "mediaStart" : 5227,
                                "mediaDuration" : 151,
                                "scalar" : 1,
                                "animationTracks" : {

                                }
                              }
,
                          "start" : 3313,
                          "duration" : 151,
                          "mediaStart" : 0,
                          "mediaDuration" : 6661,
                          "scalar" : 1,
                          "metadata" : {
                            "clipSpeedAttribute" : false,
                            "default-rotation1" : 0.0,
                            "default-scale0" : 0.25,
                            "default-scale1" : 0.25,
                            "default-translation0" : 480.0,
                            "default-translation1" : -270.0,
                            "effectApplied" : "none"
                          }
                        },
                        {
                          "id" : 84,
                          "_type" : "UnifiedMedia",
                          "video" : 
                              {
                                "id" : 85,
                                "_type" : "VMFile",
                                "src" : 1,
                                "trackNumber" : 1,
                                "attributes" : {
                                  "ident" : "02-20-01-MetodoIsLowerIsUpper-UP"
                                },
                                "effects" : [

                                ],
                                "start" : 3464,
                                "duration" : 54,
                                "mediaStart" : 5476,
                                "mediaDuration" : 54,
                                "scalar" : 1,
                                "animationTracks" : {

                                }
                              },
                          "audio" : 
                              {
                                "id" : 86,
                                "_type" : "AMFile",
                                "src" : 1,
                                "trackNumber" : 2,
                                "attributes" : {
                                  "ident" : "",
                                  "gain" : 1.0,
                                  "mixToMono" : false
                                },
                                  "channelNumber" : "0,1",
                                "effects" : [

                                ],
                                "start" : 3464,
                                "duration" : 54,
                                "mediaStart" : 5476,
                                "mediaDuration" : 54,
                                "scalar" : 1,
                                "animationTracks" : {

                                }
                              }
,
                          "start" : 3464,
                          "duration" : 54,
                          "mediaStart" : 0,
                          "mediaDuration" : 6661,
                          "scalar" : 1,
                          "metadata" : {
                            "clipSpeedAttribute" : false,
                            "default-rotation1" : 0.0,
                            "default-scale0" : 0.25,
                            "default-scale1" : 0.25,
                            "default-translation0" : 480.0,
                            "default-translation1" : -270.0,
                            "effectApplied" : "none"
                          }
                        },
                        {
                          "id" : 87,
                          "_type" : "UnifiedMedia",
                          "video" : 
                              {
                                "id" : 88,
                                "_type" : "VMFile",
                                "src" : 1,
                                "trackNumber" : 1,
                                "attributes" : {
                                  "ident" : "02-20-01-MetodoIsLowerIsUpper-UP"
                                },
                                "effects" : [

                                ],
                                "start" : 3518,
                                "duration" : 159,
                                "mediaStart" : 5568,
                                "mediaDuration" : 159,
                                "scalar" : 1,
                                "animationTracks" : {

                                }
                              },
                          "audio" : 
                              {
                                "id" : 89,
                                "_type" : "AMFile",
                                "src" : 1,
                                "trackNumber" : 2,
                                "attributes" : {
                                  "ident" : "",
                                  "gain" : 1.0,
                                  "mixToMono" : false
                                },
                                  "channelNumber" : "0,1",
                                "effects" : [

                                ],
                                "start" : 3518,
                                "duration" : 159,
                                "mediaStart" : 5568,
                                "mediaDuration" : 159,
                                "scalar" : 1,
                                "animationTracks" : {

                                }
                              }
,
                          "start" : 3518,
                          "duration" : 159,
                          "mediaStart" : 0,
                          "mediaDuration" : 6661,
                          "scalar" : 1,
                          "metadata" : {
                            "clipSpeedAttribute" : false,
                            "default-rotation1" : 0.0,
                            "default-scale0" : 0.25,
                            "default-scale1" : 0.25,
                            "default-translation0" : 480.0,
                            "default-translation1" : -270.0,
                            "effectApplied" : "none"
                          }
                        },
                        {
                          "id" : 90,
                          "_type" : "UnifiedMedia",
                          "video" : 
                              {
                                "id" : 91,
                                "_type" : "VMFile",
                                "src" : 1,
                                "trackNumber" : 1,
                                "attributes" : {
                                  "ident" : "02-20-01-MetodoIsLowerIsUpper-UP"
                                },
                                "effects" : [

                                ],
                                "start" : 3677,
                                "duration" : 610,
                                "mediaStart" : 6051,
                                "mediaDuration" : 610,
                                "scalar" : 1,
                                "animationTracks" : {

                                }
                              },
                          "audio" : 
                              {
                                "id" : 92,
                                "_type" : "AMFile",
                                "src" : 1,
                                "trackNumber" : 2,
                                "attributes" : {
                                  "ident" : "",
                                  "gain" : 1.0,
                                  "mixToMono" : false
                                },
                                  "channelNumber" : "0,1",
                                "effects" : [

                                ],
                                "start" : 3677,
                                "duration" : 610,
                                "mediaStart" : 6051,
                                "mediaDuration" : 610,
                                "scalar" : 1,
                                "animationTracks" : {

                                }
                              }
,
                          "start" : 3677,
                          "duration" : 610,
                          "mediaStart" : 0,
                          "mediaDuration" : 6661,
                          "scalar" : 1,
                          "metadata" : {
                            "clipSpeedAttribute" : false,
                            "default-rotation1" : 0.0,
                            "default-scale0" : 0.25,
                            "default-scale1" : 0.25,
                            "default-translation0" : 480.0,
                            "default-translation1" : -270.0,
                            "effectApplied" : "none"
                          }
                        }
                    ],
                    "effects" : [
                        {
                          "effectName" : "ChromaKey",
                          "category" : "categoryVisualEffects",
                          "parameters" : {
                            "clrCompensation" : {
                              "type" : "double",
                              "defaultValue" : 0.0,
                              "interp" : "linr",
                              "uiHints" : {
                                "userInterfaceType" : 0,
                                "unitType" : 0
                              }
                            },
                            "color-alpha" : {
                              "type" : "double",
                              "defaultValue" : 1.0,
                              "interp" : "linr",
                              "uiHints" : {
                                "userInterfaceType" : 0,
                                "unitType" : 0
                              }
                            },
                            "color-blue" : {
                              "type" : "double",
                              "defaultValue" : 0.294117647058824,
                              "interp" : "linr",
                              "uiHints" : {
                                "userInterfaceType" : 0,
                                "unitType" : 0
                              }
                            },
                            "color-green" : {
                              "type" : "double",
                              "defaultValue" : 0.615686274509804,
                              "interp" : "linr",
                              "uiHints" : {
                                "userInterfaceType" : 0,
                                "unitType" : 0
                              }
                            },
                            "color-red" : {
                              "type" : "double",
                              "defaultValue" : 0.411764705882353,
                              "interp" : "linr",
                              "uiHints" : {
                                "userInterfaceType" : 0,
                                "unitType" : 0
                              }
                            },
                            "defringe" : {
                              "type" : "double",
                              "defaultValue" : 0.0,
                              "interp" : "linr",
                              "uiHints" : {
                                "userInterfaceType" : 0,
                                "unitType" : 0
                              }
                            },
                            "enabled" : 1,
                            "invertEffect" : 0.0,
                            "softness" : {
                              "type" : "double",
                              "defaultValue" : 0.1,
                              "interp" : "linr",
                              "uiHints" : {
                                "userInterfaceType" : 0,
                                "unitType" : 0
                              }
                            },
                            "tolerance" : {
                              "type" : "double",
                              "defaultValue" : 0.1,
                              "interp" : "linr",
                              "uiHints" : {
                                "userInterfaceType" : 0,
                                "unitType" : 0
                              }
                            }
                          },
                          "metadata" : {
                            "effectIndex" : "0"
                          }
                        }
                    ],
                    "start" : 0,
                    "duration" : 3968,
                    "mediaStart" : 281,
                    "mediaDuration" : 3968,
                    "scalar" : 1,
                    "metadata" : {
                      "clipSpeedAttribute" : false,
                      "effectApplied" : "none"
                    },
                    "animationTracks" : {

                    }
                  }
                ],
                "transitions" : [
                  {
                    "name" : "Fade",
                    "duration" : 30,
                    "trivial" : false,
                    "reverse" : false,
                    "useAudioPreRoll" : true,
                    "useVisualPreRoll" : true,
                    "rightMedia" : 26
                  },
                  {
                    "name" : "FadeThroughBlack",
                    "duration" : 30,
                    "trivial" : false,
                    "reverse" : false,
                    "useAudioPreRoll" : true,
                    "useVisualPreRoll" : true,
                    "leftMedia" : 26
                  }
                ]
              },
              {
                "trackIndex" : 2,
                "medias" : [
                  {
                    "id" : 93,
                    "_type" : "Group",
                    "parameters" : {
                      "translation0" : {
                        "type" : "double",
                        "defaultValue" : -669.315298789963,
                        "interp" : "eioe"
                      },
                      "translation1" : {
                        "type" : "double",
                        "defaultValue" : -228.071437185051,
                        "interp" : "eioe"
                      },
                      "scale0" : {
                        "type" : "double",
                        "defaultValue" : 0.666666686534882,
                        "interp" : "eioe"
                      },
                      "scale1" : {
                        "type" : "double",
                        "defaultValue" : 0.666666686534882,
                        "interp" : "eioe"
                      },
                      "volume" : 1.0
                    },
                    "tracks" : [
                      {
                        "trackIndex" : 0,
                        "medias" : [
                          {
                            "id" : 94,
                            "_type" : "Callout",
                            "def" : {
                              "kind" : "remix",
                              "shape" : "shape-rectangle",
                              "style" : "abstract",
                              "fill-color-blue" : {
                                "type" : "double",
                                "defaultValue" : 1.0,
                                "interp" : "linr",
                                "keyframes" : [
                                  {
                                    "endTime" : 10,
                                    "time" : 0,
                                    "value" : 1.0,
                                    "duration" : 10
                                  },
                                  {
                                    "endTime" : 214,
                                    "time" : 207,
                                    "value" : 1.0,
                                    "duration" : 7
                                  }
                                ]
                              },
                              "fill-color-green" : {
                                "type" : "double",
                                "defaultValue" : 0.996078431372549,
                                "interp" : "linr",
                                "keyframes" : [
                                  {
                                    "endTime" : 10,
                                    "time" : 0,
                                    "value" : 0.996078431372549,
                                    "duration" : 10
                                  },
                                  {
                                    "endTime" : 214,
                                    "time" : 207,
                                    "value" : 0.996078431372549,
                                    "duration" : 7
                                  }
                                ]
                              },
                              "fill-color-opacity" : {
                                "type" : "double",
                                "defaultValue" : 1.0,
                                "interp" : "linr"
                              },
                              "fill-color-red" : {
                                "type" : "double",
                                "defaultValue" : 1.0,
                                "interp" : "linr",
                                "keyframes" : [
                                  {
                                    "endTime" : 10,
                                    "time" : 0,
                                    "value" : 1.0,
                                    "duration" : 10
                                  },
                                  {
                                    "endTime" : 214,
                                    "time" : 207,
                                    "value" : 1.0,
                                    "duration" : 7
                                  }
                                ]
                              },
                              "height" : {
                                "type" : "double",
                                "defaultValue" : 158.785714285758,
                                "interp" : "linr"
                              },
                              "stroke-color-blue" : {
                                "type" : "double",
                                "defaultValue" : 1.0,
                                "interp" : "linr"
                              },
                              "stroke-color-green" : {
                                "type" : "double",
                                "defaultValue" : 1.0,
                                "interp" : "linr"
                              },
                              "stroke-color-opacity" : {
                                "type" : "double",
                                "defaultValue" : 1.0,
                                "interp" : "linr"
                              },
                              "stroke-color-red" : {
                                "type" : "double",
                                "defaultValue" : 1.0,
                                "interp" : "linr"
                              },
                              "stroke-width" : {
                                "type" : "double",
                                "defaultValue" : 0.0,
                                "interp" : "linr"
                              },
                              "width" : {
                                "type" : "double",
                                "defaultValue" : 1310.35714285747,
                                "interp" : "linr"
                              },
                              "fill-style" : "solid",
                              "horizontal-alignment" : "center",
                              "stroke-style" : "solid",
                              "vertical-alignment" : "center",
                              "textAttributes" : {
                                "type" : "textAttributeList",
                                "keyframes" : [
                                  {
                                    "endTime" : 0,
                                    "time" : 0,
                                    "value" : null,
                                    "duration" : 0
                                  }
                                ]
                              }
                            },
                            "attributes" : {
                              "autoRotateText" : true
                            },
                            "parameters" : {
                              "translation0" : {
                                "type" : "double",
                                "defaultValue" : 699.151489692914,
                                "interp" : "eioe",
                                "keyframes" : [
                                  {
                                    "endTime" : 10,
                                    "time" : 0,
                                    "value" : 699.151489692914,
                                    "duration" : 10
                                  },
                                  {
                                    "endTime" : 214,
                                    "time" : 207,
                                    "value" : -681.705635725968,
                                    "duration" : 7
                                  }
                                ]
                              },
                              "translation1" : {
                                "type" : "double",
                                "defaultValue" : -0.214282989490641,
                                "interp" : "eioe",
                                "keyframes" : [
                                  {
                                    "endTime" : 10,
                                    "time" : 0,
                                    "value" : -0.214282989490641,
                                    "duration" : 10
                                  },
                                  {
                                    "endTime" : 214,
                                    "time" : 207,
                                    "value" : -0.214282964015638,
                                    "duration" : 7
                                  }
                                ]
                              },
                              "geometryCrop2" : {
                                "type" : "double",
                                "defaultValue" : 1309.35717773438,
                                "interp" : "linr",
                                "keyframes" : [
                                  {
                                    "endTime" : 10,
                                    "time" : 0,
                                    "value" : 0.0,
                                    "duration" : 10
                                  }
                                ]
                              }
                            },
                            "effects" : [
                                {
                                  "effectName" : "DropShadow",
                                  "category" : "categoryVisualEffects",
                                  "parameters" : {
                                    "angle" : {
                                      "type" : "double",
                                      "defaultValue" : 0.0,
                                      "interp" : "linr",
                                      "valueBounds" : {
                                        "minValue" : 0.0,
                                        "maxValue" : 0.0,
                                        "defaultValue" : 5.49778714378214
                                      },
                                      "uiHints" : {
                                        "userInterfaceType" : 0,
                                        "unitType" : 0
                                      },
                                      "keyframes" : [
                                        {
                                          "endTime" : 10,
                                          "time" : 0,
                                          "value" : 0.0,
                                          "duration" : 10
                                        },
                                        {
                                          "endTime" : 214,
                                          "time" : 207,
                                          "value" : 0.0,
                                          "duration" : 7
                                        }
                                      ]
                                    },
                                    "blur" : {
                                      "type" : "double",
                                      "defaultValue" : 15.0,
                                      "interp" : "linr",
                                      "valueBounds" : {
                                        "minValue" : 0.0,
                                        "maxValue" : 50.0,
                                        "defaultValue" : 10.0
                                      },
                                      "uiHints" : {
                                        "userInterfaceType" : 0,
                                        "unitType" : 0
                                      },
                                      "keyframes" : [
                                        {
                                          "endTime" : 10,
                                          "time" : 0,
                                          "value" : 15.0,
                                          "duration" : 10
                                        },
                                        {
                                          "endTime" : 214,
                                          "time" : 207,
                                          "value" : 15.0,
                                          "duration" : 7
                                        }
                                      ]
                                    },
                                    "color-alpha" : {
                                      "type" : "double",
                                      "defaultValue" : 1.0,
                                      "interp" : "linr",
                                      "valueBounds" : {
                                        "minValue" : 0.0,
                                        "maxValue" : 1.0,
                                        "defaultValue" : 1.0
                                      },
                                      "uiHints" : {
                                        "userInterfaceType" : 0,
                                        "unitType" : 0
                                      }
                                    },
                                    "color-blue" : {
                                      "type" : "double",
                                      "defaultValue" : 0.1216,
                                      "interp" : "linr",
                                      "valueBounds" : {
                                        "minValue" : 0.0,
                                        "maxValue" : 1.0,
                                        "defaultValue" : 0.1216
                                      },
                                      "uiHints" : {
                                        "userInterfaceType" : 0,
                                        "unitType" : 0
                                      }
                                    },
                                    "color-green" : {
                                      "type" : "double",
                                      "defaultValue" : 0.1216,
                                      "interp" : "linr",
                                      "valueBounds" : {
                                        "minValue" : 0.0,
                                        "maxValue" : 1.0,
                                        "defaultValue" : 0.1216
                                      },
                                      "uiHints" : {
                                        "userInterfaceType" : 0,
                                        "unitType" : 0
                                      }
                                    },
                                    "color-red" : {
                                      "type" : "double",
                                      "defaultValue" : 0.1216,
                                      "interp" : "linr",
                                      "valueBounds" : {
                                        "minValue" : 0.0,
                                        "maxValue" : 1.0,
                                        "defaultValue" : 0.1216
                                      },
                                      "uiHints" : {
                                        "userInterfaceType" : 0,
                                        "unitType" : 0
                                      }
                                    },
                                    "enabled" : {
                                      "type" : "int",
                                      "valueBounds" : {
                                        "minValue" : 0,
                                        "maxValue" : 1,
                                        "defaultValue" : 1
                                      },
                                      "uiHints" : {
                                        "userInterfaceType" : 0,
                                        "unitType" : 0
                                      },
                                      "keyframes" : [
                                        {
                                          "endTime" : 0,
                                          "time" : 0,
                                          "value" : 1,
                                          "duration" : 0
                                        }
                                      ]
                                    },
                                    "offset" : {
                                      "type" : "double",
                                      "defaultValue" : 5.0,
                                      "interp" : "linr",
                                      "valueBounds" : {
                                        "minValue" : 0.0,
                                        "maxValue" : 250.0,
                                        "defaultValue" : 10.0
                                      },
                                      "uiHints" : {
                                        "userInterfaceType" : 0,
                                        "unitType" : 0
                                      },
                                      "keyframes" : [
                                        {
                                          "endTime" : 10,
                                          "time" : 0,
                                          "value" : 5.0,
                                          "duration" : 10
                                        },
                                        {
                                          "endTime" : 214,
                                          "time" : 207,
                                          "value" : 5.0,
                                          "duration" : 7
                                        }
                                      ]
                                    },
                                    "opacity" : {
                                      "type" : "double",
                                      "defaultValue" : 0.4,
                                      "interp" : "linr",
                                      "valueBounds" : {
                                        "minValue" : 0.0,
                                        "maxValue" : 1.0,
                                        "defaultValue" : 0.4
                                      },
                                      "uiHints" : {
                                        "userInterfaceType" : 0,
                                        "unitType" : 0
                                      }
                                    }
                                  }
                                }
                            ],
                            "start" : 0,
                            "duration" : 214,
                            "mediaStart" : 0,
                            "mediaDuration" : 214,
                            "scalar" : 1,
                            "metadata" : {
                              "WinSubProjectDisplayName" : "",
                              "clipSpeedAttribute" : false,
                              "effectApplied" : "none"
                            },
                            "animationTracks" : {
                              "visual" : [
                                {
                                  "endTime" : 10,
                                  "duration" : 10,
                                  "range" : [ 0, 10]
                                },
                                {
                                  "endTime" : 214,
                                  "duration" : 7,
                                  "range" : [ 207, 7]
                                }
                              ]
                            }
                          }
                        ],
                          "ident" : "",
                          "audioMuted" : false,
                          "videoHidden" : false,
                          "magnetic" : false,
                          "matte" : 0,
                          "metadata" : {
                            "IsLocked" : "False",
                            "WinTrackHeight" : "0",
                            "trackHeight" : "48"
                          }
                      },
                      {
                        "trackIndex" : 1,
                        "medias" : [
                          {
                            "id" : 95,
                            "_type" : "Callout",
                            "def" : {
                              "kind" : "remix",
                              "shape" : "shape-rectangle",
                              "style" : "abstract",
                              "fill-color-blue" : {
                                "type" : "double",
                                "defaultValue" : 0.541176470588235,
                                "interp" : "linr",
                                "keyframes" : [
                                  {
                                    "endTime" : 20,
                                    "time" : 5,
                                    "value" : 0.541176470588235,
                                    "duration" : 15
                                  },
                                  {
                                    "endTime" : 213,
                                    "time" : 197,
                                    "value" : 0.541176470588235,
                                    "duration" : 16
                                  }
                                ]
                              },
                              "fill-color-green" : {
                                "type" : "double",
                                "defaultValue" : 0.815686274509804,
                                "interp" : "linr",
                                "keyframes" : [
                                  {
                                    "endTime" : 20,
                                    "time" : 5,
                                    "value" : 0.815686274509804,
                                    "duration" : 15
                                  },
                                  {
                                    "endTime" : 213,
                                    "time" : 197,
                                    "value" : 0.815686274509804,
                                    "duration" : 16
                                  }
                                ]
                              },
                              "fill-color-opacity" : {
                                "type" : "double",
                                "defaultValue" : 1.0,
                                "interp" : "linr"
                              },
                              "fill-color-red" : {
                                "type" : "double",
                                "defaultValue" : 0.254901960784314,
                                "interp" : "linr",
                                "keyframes" : [
                                  {
                                    "endTime" : 20,
                                    "time" : 5,
                                    "value" : 0.254901960784314,
                                    "duration" : 15
                                  },
                                  {
                                    "endTime" : 213,
                                    "time" : 197,
                                    "value" : 0.254901960784314,
                                    "duration" : 16
                                  }
                                ]
                              },
                              "height" : {
                                "type" : "double",
                                "defaultValue" : 158.785714285758,
                                "interp" : "linr"
                              },
                              "stroke-color-blue" : {
                                "type" : "double",
                                "defaultValue" : 1.0,
                                "interp" : "linr"
                              },
                              "stroke-color-green" : {
                                "type" : "double",
                                "defaultValue" : 1.0,
                                "interp" : "linr"
                              },
                              "stroke-color-opacity" : {
                                "type" : "double",
                                "defaultValue" : 1.0,
                                "interp" : "linr"
                              },
                              "stroke-color-red" : {
                                "type" : "double",
                                "defaultValue" : 1.0,
                                "interp" : "linr"
                              },
                              "stroke-width" : {
                                "type" : "double",
                                "defaultValue" : 0.0,
                                "interp" : "linr"
                              },
                              "width" : {
                                "type" : "double",
                                "defaultValue" : 1310.35714285747,
                                "interp" : "linr"
                              },
                              "fill-style" : "solid",
                              "horizontal-alignment" : "center",
                              "stroke-style" : "solid",
                              "vertical-alignment" : "center",
                              "textAttributes" : {
                                "type" : "textAttributeList",
                                "keyframes" : [
                                  {
                                    "endTime" : 0,
                                    "time" : 0,
                                    "value" : null,
                                    "duration" : 0
                                  }
                                ]
                              }
                            },
                            "attributes" : {
                              "autoRotateText" : true
                            },
                            "parameters" : {
                              "translation0" : {
                                "type" : "double",
                                "defaultValue" : 699.151489692914,
                                "interp" : "eioe",
                                "keyframes" : [
                                  {
                                    "endTime" : 20,
                                    "time" : 5,
                                    "value" : 699.151489692914,
                                    "duration" : 15
                                  },
                                  {
                                    "endTime" : 213,
                                    "time" : 197,
                                    "value" : -621.919938879128,
                                    "duration" : 16
                                  }
                                ]
                              },
                              "translation1" : {
                                "type" : "double",
                                "defaultValue" : -0.214282989490641,
                                "interp" : "eioe",
                                "keyframes" : [
                                  {
                                    "endTime" : 20,
                                    "time" : 5,
                                    "value" : -0.214282989490641,
                                    "duration" : 15
                                  },
                                  {
                                    "endTime" : 213,
                                    "time" : 197,
                                    "value" : -0.214286259240623,
                                    "duration" : 16
                                  }
                                ]
                              },
                              "geometryCrop2" : {
                                "type" : "double",
                                "defaultValue" : 1309.35717773438,
                                "interp" : "linr",
                                "keyframes" : [
                                  {
                                    "endTime" : 20,
                                    "time" : 5,
                                    "value" : 0.0,
                                    "duration" : 15
                                  }
                                ]
                              }
                            },
                            "effects" : [
                                {
                                  "effectName" : "DropShadow",
                                  "category" : "categoryVisualEffects",
                                  "parameters" : {
                                    "angle" : {
                                      "type" : "double",
                                      "defaultValue" : 0.0,
                                      "interp" : "linr",
                                      "valueBounds" : {
                                        "minValue" : 0.0,
                                        "maxValue" : 0.0,
                                        "defaultValue" : 5.49778714378214
                                      },
                                      "uiHints" : {
                                        "userInterfaceType" : 0,
                                        "unitType" : 0
                                      },
                                      "keyframes" : [
                                        {
                                          "endTime" : 20,
                                          "time" : 5,
                                          "value" : 0.0,
                                          "duration" : 15
                                        },
                                        {
                                          "endTime" : 213,
                                          "time" : 197,
                                          "value" : 0.0,
                                          "duration" : 16
                                        }
                                      ]
                                    },
                                    "blur" : {
                                      "type" : "double",
                                      "defaultValue" : 15.0,
                                      "interp" : "linr",
                                      "valueBounds" : {
                                        "minValue" : 0.0,
                                        "maxValue" : 50.0,
                                        "defaultValue" : 10.0
                                      },
                                      "uiHints" : {
                                        "userInterfaceType" : 0,
                                        "unitType" : 0
                                      },
                                      "keyframes" : [
                                        {
                                          "endTime" : 20,
                                          "time" : 5,
                                          "value" : 15.0,
                                          "duration" : 15
                                        },
                                        {
                                          "endTime" : 213,
                                          "time" : 197,
                                          "value" : 15.0,
                                          "duration" : 16
                                        }
                                      ]
                                    },
                                    "color-alpha" : {
                                      "type" : "double",
                                      "defaultValue" : 1.0,
                                      "interp" : "linr",
                                      "valueBounds" : {
                                        "minValue" : 0.0,
                                        "maxValue" : 1.0,
                                        "defaultValue" : 1.0
                                      },
                                      "uiHints" : {
                                        "userInterfaceType" : 0,
                                        "unitType" : 0
                                      }
                                    },
                                    "color-blue" : {
                                      "type" : "double",
                                      "defaultValue" : 0.1216,
                                      "interp" : "linr",
                                      "valueBounds" : {
                                        "minValue" : 0.0,
                                        "maxValue" : 1.0,
                                        "defaultValue" : 0.1216
                                      },
                                      "uiHints" : {
                                        "userInterfaceType" : 0,
                                        "unitType" : 0
                                      }
                                    },
                                    "color-green" : {
                                      "type" : "double",
                                      "defaultValue" : 0.1216,
                                      "interp" : "linr",
                                      "valueBounds" : {
                                        "minValue" : 0.0,
                                        "maxValue" : 1.0,
                                        "defaultValue" : 0.1216
                                      },
                                      "uiHints" : {
                                        "userInterfaceType" : 0,
                                        "unitType" : 0
                                      }
                                    },
                                    "color-red" : {
                                      "type" : "double",
                                      "defaultValue" : 0.1216,
                                      "interp" : "linr",
                                      "valueBounds" : {
                                        "minValue" : 0.0,
                                        "maxValue" : 1.0,
                                        "defaultValue" : 0.1216
                                      },
                                      "uiHints" : {
                                        "userInterfaceType" : 0,
                                        "unitType" : 0
                                      }
                                    },
                                    "enabled" : {
                                      "type" : "int",
                                      "valueBounds" : {
                                        "minValue" : 0,
                                        "maxValue" : 1,
                                        "defaultValue" : 1
                                      },
                                      "uiHints" : {
                                        "userInterfaceType" : 0,
                                        "unitType" : 0
                                      },
                                      "keyframes" : [
                                        {
                                          "endTime" : 0,
                                          "time" : 0,
                                          "value" : 1,
                                          "duration" : 0
                                        }
                                      ]
                                    },
                                    "offset" : {
                                      "type" : "double",
                                      "defaultValue" : 5.0,
                                      "interp" : "linr",
                                      "valueBounds" : {
                                        "minValue" : 0.0,
                                        "maxValue" : 250.0,
                                        "defaultValue" : 10.0
                                      },
                                      "uiHints" : {
                                        "userInterfaceType" : 0,
                                        "unitType" : 0
                                      },
                                      "keyframes" : [
                                        {
                                          "endTime" : 20,
                                          "time" : 5,
                                          "value" : 5.0,
                                          "duration" : 15
                                        },
                                        {
                                          "endTime" : 213,
                                          "time" : 197,
                                          "value" : 5.0,
                                          "duration" : 16
                                        }
                                      ]
                                    },
                                    "opacity" : {
                                      "type" : "double",
                                      "defaultValue" : 0.4,
                                      "interp" : "linr",
                                      "valueBounds" : {
                                        "minValue" : 0.0,
                                        "maxValue" : 1.0,
                                        "defaultValue" : 0.4
                                      },
                                      "uiHints" : {
                                        "userInterfaceType" : 0,
                                        "unitType" : 0
                                      }
                                    }
                                  }
                                }
                            ],
                            "start" : 1,
                            "duration" : 213,
                            "mediaStart" : 0,
                            "mediaDuration" : 213,
                            "scalar" : 1,
                            "metadata" : {
                              "WinSubProjectDisplayName" : "",
                              "clipSpeedAttribute" : false,
                              "effectApplied" : "none"
                            },
                            "animationTracks" : {
                              "visual" : [
                                {
                                  "endTime" : 20,
                                  "duration" : 15,
                                  "range" : [ 5, 15]
                                },
                                {
                                  "endTime" : 213,
                                  "duration" : 16,
                                  "range" : [ 197, 16]
                                }
                              ]
                            }
                          }
                        ],
                          "ident" : "",
                          "audioMuted" : false,
                          "videoHidden" : false,
                          "magnetic" : false,
                          "matte" : 0,
                          "metadata" : {
                            "IsLocked" : "False",
                            "WinTrackHeight" : "1.35159763105127e-311",
                            "trackHeight" : "48"
                          }
                      },
                      {
                        "trackIndex" : 2,
                        "medias" : [
                          {
                            "id" : 96,
                            "_type" : "Callout",
                            "def" : {
                              "kind" : "remix",
                              "shape" : "shape-rectangle",
                              "style" : "abstract",
                              "fill-color-blue" : {
                                "type" : "double",
                                "defaultValue" : 0.647058823529412,
                                "interp" : "linr",
                                "keyframes" : [
                                  {
                                    "endTime" : 38,
                                    "time" : 13,
                                    "value" : 0.647058823529412,
                                    "duration" : 25
                                  }
                                ]
                              },
                              "fill-color-green" : {
                                "type" : "double",
                                "defaultValue" : 0.537254901960784,
                                "interp" : "linr",
                                "keyframes" : [
                                  {
                                    "endTime" : 38,
                                    "time" : 13,
                                    "value" : 0.537254901960784,
                                    "duration" : 25
                                  }
                                ]
                              },
                              "fill-color-opacity" : {
                                "type" : "double",
                                "defaultValue" : 1.0,
                                "interp" : "linr"
                              },
                              "fill-color-red" : {
                                "type" : "double",
                                "defaultValue" : 0.164705882352941,
                                "interp" : "linr",
                                "keyframes" : [
                                  {
                                    "endTime" : 38,
                                    "time" : 13,
                                    "value" : 0.164705882352941,
                                    "duration" : 25
                                  }
                                ]
                              },
                              "height" : {
                                "type" : "double",
                                "defaultValue" : 158.785714285758,
                                "interp" : "linr"
                              },
                              "stroke-color-blue" : {
                                "type" : "double",
                                "defaultValue" : 1.0,
                                "interp" : "linr"
                              },
                              "stroke-color-green" : {
                                "type" : "double",
                                "defaultValue" : 1.0,
                                "interp" : "linr"
                              },
                              "stroke-color-opacity" : {
                                "type" : "double",
                                "defaultValue" : 1.0,
                                "interp" : "linr"
                              },
                              "stroke-color-red" : {
                                "type" : "double",
                                "defaultValue" : 1.0,
                                "interp" : "linr"
                              },
                              "stroke-width" : {
                                "type" : "double",
                                "defaultValue" : 0.0,
                                "interp" : "linr"
                              },
                              "width" : {
                                "type" : "double",
                                "defaultValue" : 1310.35714285747,
                                "interp" : "linr"
                              },
                              "fill-style" : "solid",
                              "horizontal-alignment" : "center",
                              "stroke-style" : "solid",
                              "vertical-alignment" : "center",
                              "textAttributes" : {
                                "type" : "textAttributeList",
                                "keyframes" : [
                                  {
                                    "endTime" : 0,
                                    "time" : 0,
                                    "value" : null,
                                    "duration" : 0
                                  }
                                ]
                              }
                            },
                            "attributes" : {
                              "autoRotateText" : true
                            },
                            "parameters" : {
                              "translation0" : {
                                "type" : "double",
                                "defaultValue" : 699.151489692914,
                                "interp" : "eioe",
                                "keyframes" : [
                                  {
                                    "endTime" : 38,
                                    "time" : 13,
                                    "value" : 699.151489692914,
                                    "duration" : 25
                                  }
                                ]
                              },
                              "translation1" : {
                                "type" : "double",
                                "defaultValue" : -0.214282989490641,
                                "interp" : "eioe",
                                "keyframes" : [
                                  {
                                    "endTime" : 38,
                                    "time" : 13,
                                    "value" : -0.214282989490641,
                                    "duration" : 25
                                  }
                                ]
                              },
                              "geometryCrop2" : {
                                "type" : "double",
                                "defaultValue" : 1309.35717773438,
                                "interp" : "linr",
                                "keyframes" : [
                                  {
                                    "endTime" : 38,
                                    "time" : 13,
                                    "value" : 0.0,
                                    "duration" : 25
                                  }
                                ]
                              }
                            },
                            "effects" : [
                                {
                                  "effectName" : "DropShadow",
                                  "category" : "categoryVisualEffects",
                                  "parameters" : {
                                    "angle" : {
                                      "type" : "double",
                                      "defaultValue" : 0.0,
                                      "interp" : "linr",
                                      "valueBounds" : {
                                        "minValue" : 0.0,
                                        "maxValue" : 0.0,
                                        "defaultValue" : 5.49778714378214
                                      },
                                      "uiHints" : {
                                        "userInterfaceType" : 0,
                                        "unitType" : 0
                                      },
                                      "keyframes" : [
                                        {
                                          "endTime" : 38,
                                          "time" : 13,
                                          "value" : 0.0,
                                          "duration" : 25
                                        }
                                      ]
                                    },
                                    "blur" : {
                                      "type" : "double",
                                      "defaultValue" : 15.0,
                                      "interp" : "linr",
                                      "valueBounds" : {
                                        "minValue" : 0.0,
                                        "maxValue" : 50.0,
                                        "defaultValue" : 10.0
                                      },
                                      "uiHints" : {
                                        "userInterfaceType" : 0,
                                        "unitType" : 0
                                      },
                                      "keyframes" : [
                                        {
                                          "endTime" : 38,
                                          "time" : 13,
                                          "value" : 15.0,
                                          "duration" : 25
                                        }
                                      ]
                                    },
                                    "color-alpha" : {
                                      "type" : "double",
                                      "defaultValue" : 1.0,
                                      "interp" : "linr",
                                      "valueBounds" : {
                                        "minValue" : 0.0,
                                        "maxValue" : 1.0,
                                        "defaultValue" : 1.0
                                      },
                                      "uiHints" : {
                                        "userInterfaceType" : 0,
                                        "unitType" : 0
                                      }
                                    },
                                    "color-blue" : {
                                      "type" : "double",
                                      "defaultValue" : 0.1216,
                                      "interp" : "linr",
                                      "valueBounds" : {
                                        "minValue" : 0.0,
                                        "maxValue" : 1.0,
                                        "defaultValue" : 0.1216
                                      },
                                      "uiHints" : {
                                        "userInterfaceType" : 0,
                                        "unitType" : 0
                                      }
                                    },
                                    "color-green" : {
                                      "type" : "double",
                                      "defaultValue" : 0.1216,
                                      "interp" : "linr",
                                      "valueBounds" : {
                                        "minValue" : 0.0,
                                        "maxValue" : 1.0,
                                        "defaultValue" : 0.1216
                                      },
                                      "uiHints" : {
                                        "userInterfaceType" : 0,
                                        "unitType" : 0
                                      }
                                    },
                                    "color-red" : {
                                      "type" : "double",
                                      "defaultValue" : 0.1216,
                                      "interp" : "linr",
                                      "valueBounds" : {
                                        "minValue" : 0.0,
                                        "maxValue" : 1.0,
                                        "defaultValue" : 0.1216
                                      },
                                      "uiHints" : {
                                        "userInterfaceType" : 0,
                                        "unitType" : 0
                                      }
                                    },
                                    "enabled" : {
                                      "type" : "int",
                                      "valueBounds" : {
                                        "minValue" : 0,
                                        "maxValue" : 1,
                                        "defaultValue" : 1
                                      },
                                      "uiHints" : {
                                        "userInterfaceType" : 0,
                                        "unitType" : 0
                                      },
                                      "keyframes" : [
                                        {
                                          "endTime" : 0,
                                          "time" : 0,
                                          "value" : 1,
                                          "duration" : 0
                                        }
                                      ]
                                    },
                                    "offset" : {
                                      "type" : "double",
                                      "defaultValue" : 5.0,
                                      "interp" : "linr",
                                      "valueBounds" : {
                                        "minValue" : 0.0,
                                        "maxValue" : 250.0,
                                        "defaultValue" : 10.0
                                      },
                                      "uiHints" : {
                                        "userInterfaceType" : 0,
                                        "unitType" : 0
                                      },
                                      "keyframes" : [
                                        {
                                          "endTime" : 38,
                                          "time" : 13,
                                          "value" : 5.0,
                                          "duration" : 25
                                        }
                                      ]
                                    },
                                    "opacity" : {
                                      "type" : "double",
                                      "defaultValue" : 0.4,
                                      "interp" : "linr",
                                      "valueBounds" : {
                                        "minValue" : 0.0,
                                        "maxValue" : 1.0,
                                        "defaultValue" : 0.4
                                      },
                                      "uiHints" : {
                                        "userInterfaceType" : 0,
                                        "unitType" : 0
                                      }
                                    }
                                  }
                                }
                            ],
                            "start" : 0,
                            "duration" : 176,
                            "mediaStart" : 0,
                            "mediaDuration" : 176,
                            "scalar" : 1,
                            "metadata" : {
                              "WinSubProjectDisplayName" : "",
                              "clipSpeedAttribute" : false,
                              "effectApplied" : "none"
                            },
                            "animationTracks" : {
                              "visual" : [
                                {
                                  "endTime" : 38,
                                  "duration" : 25,
                                  "range" : [ 13, 25]
                                }
                              ]
                            }
                          }
                        ],
                          "ident" : "",
                          "audioMuted" : false,
                          "videoHidden" : false,
                          "magnetic" : false,
                          "matte" : 0,
                          "metadata" : {
                            "IsLocked" : "False",
                            "WinTrackHeight" : "1.35159763105127e-311",
                            "trackHeight" : "48"
                          }
                      },
                      {
                        "trackIndex" : 3,
                        "medias" : [
                          {
                            "id" : 97,
                            "_type" : "Callout",
                            "def" : {
                              "kind" : "remix",
                              "shape" : "shape-rectangle",
                              "style" : "abstract",
                              "fill-color-blue" : {
                                "type" : "double",
                                "defaultValue" : 0.694117647058824,
                                "interp" : "linr",
                                "keyframes" : [
                                  {
                                    "endTime" : 136,
                                    "time" : 0,
                                    "value" : 0.694117647058824,
                                    "duration" : 136
                                  },
                                  {
                                    "endTime" : 171,
                                    "time" : 146,
                                    "value" : 0.694117647058824,
                                    "duration" : 25
                                  }
                                ]
                              },
                              "fill-color-green" : {
                                "type" : "double",
                                "defaultValue" : 0.6,
                                "interp" : "linr",
                                "keyframes" : [
                                  {
                                    "endTime" : 136,
                                    "time" : 0,
                                    "value" : 0.6,
                                    "duration" : 136
                                  },
                                  {
                                    "endTime" : 171,
                                    "time" : 146,
                                    "value" : 0.6,
                                    "duration" : 25
                                  }
                                ]
                              },
                              "fill-color-opacity" : {
                                "type" : "double",
                                "defaultValue" : 1.0,
                                "interp" : "linr"
                              },
                              "fill-color-red" : {
                                "type" : "double",
                                "defaultValue" : 0.270588235294118,
                                "interp" : "linr",
                                "keyframes" : [
                                  {
                                    "endTime" : 136,
                                    "time" : 0,
                                    "value" : 0.270588235294118,
                                    "duration" : 136
                                  },
                                  {
                                    "endTime" : 171,
                                    "time" : 146,
                                    "value" : 0.270588235294118,
                                    "duration" : 25
                                  }
                                ]
                              },
                              "height" : {
                                "type" : "double",
                                "defaultValue" : 158.732564486591,
                                "interp" : "linr"
                              },
                              "stroke-color-blue" : {
                                "type" : "double",
                                "defaultValue" : 1.0,
                                "interp" : "linr"
                              },
                              "stroke-color-green" : {
                                "type" : "double",
                                "defaultValue" : 1.0,
                                "interp" : "linr"
                              },
                              "stroke-color-opacity" : {
                                "type" : "double",
                                "defaultValue" : 1.0,
                                "interp" : "linr"
                              },
                              "stroke-color-red" : {
                                "type" : "double",
                                "defaultValue" : 1.0,
                                "interp" : "linr"
                              },
                              "stroke-width" : {
                                "type" : "double",
                                "defaultValue" : 0.0,
                                "interp" : "linr"
                              },
                              "width" : {
                                "type" : "double",
                                "defaultValue" : 1282.42857142849,
                                "interp" : "linr",
                                "keyframes" : [
                                  {
                                    "endTime" : 136,
                                    "time" : 0,
                                    "value" : 1310.35713413821,
                                    "duration" : 136
                                  }
                                ]
                              },
                              "fill-style" : "solid",
                              "horizontal-alignment" : "center",
                              "stroke-style" : "solid",
                              "vertical-alignment" : "center",
                              "textAttributes" : {
                                "type" : "textAttributeList",
                                "keyframes" : [
                                  {
                                    "endTime" : 0,
                                    "time" : 0,
                                    "value" : null,
                                    "duration" : 0
                                  }
                                ]
                              }
                            },
                            "attributes" : {
                              "autoRotateText" : true
                            },
                            "parameters" : {
                              "translation0" : {
                                "type" : "double",
                                "defaultValue" : -713.115788486258,
                                "interp" : "eioe",
                                "keyframes" : [
                                  {
                                    "endTime" : 136,
                                    "time" : 0,
                                    "value" : 699.151494052664,
                                    "duration" : 136
                                  },
                                  {
                                    "endTime" : 171,
                                    "time" : 146,
                                    "value" : -616.134220233298,
                                    "duration" : 25
                                  }
                                ]
                              },
                              "translation1" : {
                                "type" : "double",
                                "defaultValue" : -0.0265737260986612,
                                "interp" : "eioe",
                                "keyframes" : [
                                  {
                                    "endTime" : 136,
                                    "time" : 0,
                                    "value" : -0.240860530284635,
                                    "duration" : 136
                                  },
                                  {
                                    "endTime" : 171,
                                    "time" : 146,
                                    "value" : -0.187705448583642,
                                    "duration" : 25
                                  }
                                ]
                              }
                            },
                            "effects" : [

                            ],
                            "start" : 38,
                            "duration" : 176,
                            "mediaStart" : 0,
                            "mediaDuration" : 176,
                            "scalar" : 1,
                            "metadata" : {
                              "WinSubProjectDisplayName" : "",
                              "clipSpeedAttribute" : false,
                              "effectApplied" : "none"
                            },
                            "animationTracks" : {
                              "visual" : [
                                {
                                  "endTime" : 136,
                                  "duration" : 136,
                                  "range" : [ 0, 136],
                                  "interp" : "linr"
                                },
                                {
                                  "endTime" : 171,
                                  "duration" : 25,
                                  "range" : [ 146, 25]
                                }
                              ]
                            }
                          }
                        ],
                          "ident" : "",
                          "audioMuted" : false,
                          "videoHidden" : false,
                          "magnetic" : false,
                          "matte" : 0,
                          "metadata" : {
                            "IsLocked" : "False",
                            "WinTrackHeight" : "1.35159763105127e-311",
                            "trackHeight" : "48"
                          }
                      },
                      {
                        "trackIndex" : 4,
                        "medias" : [
                          {
                            "id" : 98,
                            "_type" : "Callout",
                            "def" : {
                              "kind" : "remix",
                              "shape" : "text",
                              "style" : "basic",
                              "height" : {
                                "type" : "double",
                                "defaultValue" : 158.571428571689,
                                "interp" : "linr"
                              },
                              "line-spacing" : {
                                "type" : "double",
                                "defaultValue" : 0.0,
                                "interp" : "linr"
                              },
                              "width" : {
                                "type" : "double",
                                "defaultValue" : 1237.67669172885,
                                "interp" : "linr"
                              },
                              "word-wrap" : {
                                "type" : "double",
                                "defaultValue" : 1.0,
                                "interp" : "linr"
                              },
                              "horizontal-alignment" : "center",
                              "resize-behavior" : "resizeText",
                              "text" : "Función isLower o isUpper",
                              "vertical-alignment" : "center",
                              "font" : {
                                "color-blue" : {
                                  "type" : "double",
                                  "defaultValue" : 1.0,
                                  "interp" : "linr"
                                },
                                "color-green" : {
                                  "type" : "double",
                                  "defaultValue" : 1.0,
                                  "interp" : "linr"
                                },
                                "color-red" : {
                                  "type" : "double",
                                  "defaultValue" : 1.0,
                                  "interp" : "linr"
                                },
                                "size" : {
                                  "type" : "double",
                                  "defaultValue" : 96.0,
                                  "interp" : "linr"
                                },
                                "tracking" : {
                                  "type" : "double",
                                  "defaultValue" : 0.0,
                                  "interp" : "linr"
                                },
                                "name" : "Montserrat",
                                "weight" : "Regular"
                              },
                              "textAttributes" : {
                                "type" : "textAttributeList",
                                "keyframes" : [
                                  {
                                    "endTime" : 0,
                                    "time" : 0,
                                    "value" : [{"name":"underline","rangeEnd":26,"rangeStart":0,"value":0,"valueType":"int"},{"name":"fgColor","rangeEnd":26,"rangeStart":0,"value":"(255,255,255,255)","valueType":"color"},{"name":"fontName","rangeEnd":26,"rangeStart":0,"value":"Montserrat","valueType":"string"},{"name":"strikethrough","rangeEnd":26,"rangeStart":0,"value":0,"valueType":"int"},{"name":"kerning","rangeEnd":26,"rangeStart":0,"value":0,"valueType":"double"},{"name":"fontSize","rangeEnd":26,"rangeStart":0,"value":96,"valueType":"double"},{"name":"fontWeight","rangeEnd":26,"rangeStart":0,"value":400,"valueType":"int"},{"name":"fontItalic","rangeEnd":26,"rangeStart":0,"value":0,"valueType":"int"}],
                                    "duration" : 0
                                  }
                                ]
                              }
                            },
                            "attributes" : {
                              "autoRotateText" : true
                            },
                            "parameters" : {
                              "translation0" : {
                                "type" : "double",
                                "defaultValue" : -579.329713314238,
                                "interp" : "eioe",
                                "keyframes" : [
                                  {
                                    "endTime" : 30,
                                    "time" : 2,
                                    "value" : 699.313143828538,
                                    "duration" : 28
                                  },
                                  {
                                    "endTime" : 180,
                                    "time" : 152,
                                    "value" : -598.615427600048,
                                    "duration" : 28
                                  }
                                ]
                              },
                              "translation1" : {
                                "type" : "double",
                                "defaultValue" : 0.107146671752332,
                                "interp" : "eioe",
                                "keyframes" : [
                                  {
                                    "endTime" : 30,
                                    "time" : 2,
                                    "value" : 0.107146671838336,
                                    "duration" : 28
                                  },
                                  {
                                    "endTime" : 180,
                                    "time" : 152,
                                    "value" : 0.107146671710382,
                                    "duration" : 28
                                  }
                                ]
                              }
                            },
                            "effects" : [
                                {
                                  "effectName" : "DropShadow",
                                  "category" : "categoryVisualEffects",
                                  "parameters" : {
                                    "angle" : {
                                      "type" : "double",
                                      "defaultValue" : 5.49778714378214,
                                      "interp" : "linr",
                                      "valueBounds" : {
                                        "minValue" : 0.0,
                                        "maxValue" : 0.0,
                                        "defaultValue" : 5.49778714378214
                                      },
                                      "uiHints" : {
                                        "userInterfaceType" : 0,
                                        "unitType" : 0
                                      }
                                    },
                                    "blur" : {
                                      "type" : "double",
                                      "defaultValue" : 10.0,
                                      "interp" : "linr",
                                      "valueBounds" : {
                                        "minValue" : 0.0,
                                        "maxValue" : 50.0,
                                        "defaultValue" : 10.0
                                      },
                                      "uiHints" : {
                                        "userInterfaceType" : 0,
                                        "unitType" : 0
                                      },
                                      "keyframes" : [
                                        {
                                          "endTime" : 30,
                                          "time" : 2,
                                          "value" : 10.0,
                                          "duration" : 28
                                        }
                                      ]
                                    },
                                    "color-alpha" : {
                                      "type" : "double",
                                      "defaultValue" : 1.0,
                                      "interp" : "linr",
                                      "valueBounds" : {
                                        "minValue" : 0.0,
                                        "maxValue" : 1.0,
                                        "defaultValue" : 1.0
                                      },
                                      "uiHints" : {
                                        "userInterfaceType" : 0,
                                        "unitType" : 0
                                      }
                                    },
                                    "color-blue" : {
                                      "type" : "double",
                                      "defaultValue" : 0.1216,
                                      "interp" : "linr",
                                      "valueBounds" : {
                                        "minValue" : 0.0,
                                        "maxValue" : 1.0,
                                        "defaultValue" : 0.1216
                                      },
                                      "uiHints" : {
                                        "userInterfaceType" : 0,
                                        "unitType" : 0
                                      }
                                    },
                                    "color-green" : {
                                      "type" : "double",
                                      "defaultValue" : 0.1216,
                                      "interp" : "linr",
                                      "valueBounds" : {
                                        "minValue" : 0.0,
                                        "maxValue" : 1.0,
                                        "defaultValue" : 0.1216
                                      },
                                      "uiHints" : {
                                        "userInterfaceType" : 0,
                                        "unitType" : 0
                                      }
                                    },
                                    "color-red" : {
                                      "type" : "double",
                                      "defaultValue" : 0.1216,
                                      "interp" : "linr",
                                      "valueBounds" : {
                                        "minValue" : 0.0,
                                        "maxValue" : 1.0,
                                        "defaultValue" : 0.1216
                                      },
                                      "uiHints" : {
                                        "userInterfaceType" : 0,
                                        "unitType" : 0
                                      }
                                    },
                                    "enabled" : {
                                      "type" : "int",
                                      "valueBounds" : {
                                        "minValue" : 0,
                                        "maxValue" : 1,
                                        "defaultValue" : 1
                                      },
                                      "uiHints" : {
                                        "userInterfaceType" : 0,
                                        "unitType" : 0
                                      },
                                      "keyframes" : [
                                        {
                                          "endTime" : 0,
                                          "time" : 0,
                                          "value" : 1,
                                          "duration" : 0
                                        }
                                      ]
                                    },
                                    "offset" : {
                                      "type" : "double",
                                      "defaultValue" : 10.0,
                                      "interp" : "linr",
                                      "valueBounds" : {
                                        "minValue" : 0.0,
                                        "maxValue" : 250.0,
                                        "defaultValue" : 10.0
                                      },
                                      "uiHints" : {
                                        "userInterfaceType" : 0,
                                        "unitType" : 0
                                      },
                                      "keyframes" : [
                                        {
                                          "endTime" : 30,
                                          "time" : 2,
                                          "value" : 10.0,
                                          "duration" : 28
                                        }
                                      ]
                                    },
                                    "opacity" : {
                                      "type" : "double",
                                      "defaultValue" : 0.4,
                                      "interp" : "linr",
                                      "valueBounds" : {
                                        "minValue" : 0.0,
                                        "maxValue" : 1.0,
                                        "defaultValue" : 0.4
                                      },
                                      "uiHints" : {
                                        "userInterfaceType" : 0,
                                        "unitType" : 0
                                      }
                                    }
                                  }
                                }
                            ],
                            "start" : 22,
                            "duration" : 180,
                            "mediaStart" : 0,
                            "mediaDuration" : 180,
                            "scalar" : 1,
                            "metadata" : {
                              "WinSubProjectDisplayName" : "",
                              "clipSpeedAttribute" : false,
                              "default-HAlign" : "center",
                              "default-LineSpace" : 0.0,
                              "default-VAlign" : "center",
                              "default-text-attributes" : "[{\"name\":\"fontName\",\"rangeEnd\":26,\"rangeStart\":0,\"value\":\"Montserrat\",\"valueType\":\"string\"},{\"name\":\"kerning\",\"rangeEnd\":26,\"rangeStart\":0,\"value\":0,\"valueType\":\"double\"},{\"name\":\"fontSize\",\"rangeEnd\":26,\"rangeStart\":0,\"value\":96,\"valueType\":\"double\"},{\"name\":\"strikethrough\",\"rangeEnd\":26,\"rangeStart\":0,\"value\":0,\"valueType\":\"int\"},{\"name\":\"underline\",\"rangeEnd\":26,\"rangeStart\":0,\"value\":0,\"valueType\":\"int\"},{\"name\":\"fontWeight\",\"rangeEnd\":26,\"rangeStart\":0,\"value\":400,\"valueType\":\"int\"},{\"name\":\"fontItalic\",\"rangeEnd\":26,\"rangeStart\":0,\"value\":0,\"valueType\":\"int\"},{\"name\":\"fgColor\",\"rangeEnd\":26,\"rangeStart\":0,\"value\":\"(255,255,255,255)\",\"valueType\":\"color\"}]",
                              "effectApplied" : "none"
                            },
                            "animationTracks" : {
                              "visual" : [
                                {
                                  "endTime" : 30,
                                  "duration" : 28,
                                  "range" : [ 2, 28],
                                  "interp" : "eioe"
                                },
                                {
                                  "endTime" : 180,
                                  "duration" : 28,
                                  "range" : [ 152, 28]
                                }
                              ]
                            }
                          }
                        ],
                          "ident" : "",
                          "audioMuted" : false,
                          "videoHidden" : false,
                          "magnetic" : false,
                          "matte" : 0,
                          "metadata" : {
                            "IsLocked" : "False",
                            "WinTrackHeight" : "1.35159763105127e-311",
                            "trackHeight" : "48"
                          }
                      }
                    ],
                    "attributes" : {
                      "ident" : "GM-texto2",
                      "gain" : 1.0,
                      "mixToMono" : false,
                      "assetProperties" : [
                        {
                          "type" : 0,
                          "name" : "Title",
                          "objects" : [ 98 ],
                          "themeMappings" :  {
                            "font-color" : "foreground-1",
                            "font-family" : "font-1"
                          }
                        },
                        {
                          "type" : 1,
                          "name" : "Color 1",
                          "objects" : [ 97 ],
                          "themeMappings" :  {
                            "fill" : "background-1"
                          }
                        },
                        {
                          "type" : 1,
                          "name" : "Color 2",
                          "objects" : [ 96 ],
                          "themeMappings" :  {
                            "fill" : "background-2"
                          }
                        },
                        {
                          "type" : 1,
                          "name" : "Color 3",
                          "objects" : [ 95 ],
                          "themeMappings" :  {
                            "fill" : "accent-1"
                          }
                        },
                        {
                          "type" : 1,
                          "name" : "Color 4",
                          "objects" : [ 94 ],
                          "themeMappings" :  {
                            "fill" : "foreground-1"
                          }
                        }
                      ]
                    },
                    "effects" : [

                    ],
                    "start" : 0,
                    "duration" : 214,
                    "mediaStart" : 0.0,
                    "mediaDuration" : 214.0,
                    "scalar" : 1,
                    "metadata" : {
                      "AppliedThemeId" : "",
                      "IsGroupExpanded" : "False",
                      "WinSubProjectDisplayName" : "",
                      "clipSpeedAttribute" : false,
                      "effectApplied" : "none",
                      "isOpen" : false
                    },
                    "animationTracks" : {

                    }
                  },
                  {
                    "id" : 99,
                    "_type" : "Group",
                    "parameters" : {
                      "translation0" : {
                        "type" : "double",
                        "defaultValue" : -669.315298789963,
                        "interp" : "eioe"
                      },
                      "translation1" : {
                        "type" : "double",
                        "defaultValue" : -228.071437185051,
                        "interp" : "eioe"
                      },
                      "scale0" : {
                        "type" : "double",
                        "defaultValue" : 0.666666686534882,
                        "interp" : "eioe"
                      },
                      "scale1" : {
                        "type" : "double",
                        "defaultValue" : 0.666666686534882,
                        "interp" : "eioe"
                      },
                      "volume" : 1.0
                    },
                    "tracks" : [
                      {
                        "trackIndex" : 0,
                        "medias" : [
                          {
                            "id" : 100,
                            "_type" : "Callout",
                            "def" : {
                              "kind" : "remix",
                              "shape" : "shape-rectangle",
                              "style" : "abstract",
                              "fill-color-blue" : {
                                "type" : "double",
                                "defaultValue" : 1.0,
                                "interp" : "linr",
                                "keyframes" : [
                                  {
                                    "endTime" : 10,
                                    "time" : 0,
                                    "value" : 1.0,
                                    "duration" : 10
                                  },
                                  {
                                    "endTime" : 214,
                                    "time" : 207,
                                    "value" : 1.0,
                                    "duration" : 7
                                  }
                                ]
                              },
                              "fill-color-green" : {
                                "type" : "double",
                                "defaultValue" : 0.996078431372549,
                                "interp" : "linr",
                                "keyframes" : [
                                  {
                                    "endTime" : 10,
                                    "time" : 0,
                                    "value" : 0.996078431372549,
                                    "duration" : 10
                                  },
                                  {
                                    "endTime" : 214,
                                    "time" : 207,
                                    "value" : 0.996078431372549,
                                    "duration" : 7
                                  }
                                ]
                              },
                              "fill-color-opacity" : {
                                "type" : "double",
                                "defaultValue" : 1.0,
                                "interp" : "linr"
                              },
                              "fill-color-red" : {
                                "type" : "double",
                                "defaultValue" : 1.0,
                                "interp" : "linr",
                                "keyframes" : [
                                  {
                                    "endTime" : 10,
                                    "time" : 0,
                                    "value" : 1.0,
                                    "duration" : 10
                                  },
                                  {
                                    "endTime" : 214,
                                    "time" : 207,
                                    "value" : 1.0,
                                    "duration" : 7
                                  }
                                ]
                              },
                              "height" : {
                                "type" : "double",
                                "defaultValue" : 158.785714285758,
                                "interp" : "linr"
                              },
                              "stroke-color-blue" : {
                                "type" : "double",
                                "defaultValue" : 1.0,
                                "interp" : "linr"
                              },
                              "stroke-color-green" : {
                                "type" : "double",
                                "defaultValue" : 1.0,
                                "interp" : "linr"
                              },
                              "stroke-color-opacity" : {
                                "type" : "double",
                                "defaultValue" : 1.0,
                                "interp" : "linr"
                              },
                              "stroke-color-red" : {
                                "type" : "double",
                                "defaultValue" : 1.0,
                                "interp" : "linr"
                              },
                              "stroke-width" : {
                                "type" : "double",
                                "defaultValue" : 0.0,
                                "interp" : "linr"
                              },
                              "width" : {
                                "type" : "double",
                                "defaultValue" : 1310.35714285747,
                                "interp" : "linr"
                              },
                              "fill-style" : "solid",
                              "horizontal-alignment" : "center",
                              "stroke-style" : "solid",
                              "vertical-alignment" : "center",
                              "textAttributes" : {
                                "type" : "textAttributeList",
                                "keyframes" : [
                                  {
                                    "endTime" : 0,
                                    "time" : 0,
                                    "value" : null,
                                    "duration" : 0
                                  }
                                ]
                              }
                            },
                            "attributes" : {
                              "autoRotateText" : true
                            },
                            "parameters" : {
                              "translation0" : {
                                "type" : "double",
                                "defaultValue" : 699.151489692914,
                                "interp" : "eioe",
                                "keyframes" : [
                                  {
                                    "endTime" : 10,
                                    "time" : 0,
                                    "value" : 699.151489692914,
                                    "duration" : 10
                                  },
                                  {
                                    "endTime" : 214,
                                    "time" : 207,
                                    "value" : -681.705635725968,
                                    "duration" : 7
                                  }
                                ]
                              },
                              "translation1" : {
                                "type" : "double",
                                "defaultValue" : -0.214282989490641,
                                "interp" : "eioe",
                                "keyframes" : [
                                  {
                                    "endTime" : 10,
                                    "time" : 0,
                                    "value" : -0.214282989490641,
                                    "duration" : 10
                                  },
                                  {
                                    "endTime" : 214,
                                    "time" : 207,
                                    "value" : -0.214282964015638,
                                    "duration" : 7
                                  }
                                ]
                              },
                              "geometryCrop2" : {
                                "type" : "double",
                                "defaultValue" : 1309.35717773438,
                                "interp" : "linr",
                                "keyframes" : [
                                  {
                                    "endTime" : 10,
                                    "time" : 0,
                                    "value" : 0.0,
                                    "duration" : 10
                                  }
                                ]
                              }
                            },
                            "effects" : [
                                {
                                  "effectName" : "DropShadow",
                                  "category" : "categoryVisualEffects",
                                  "parameters" : {
                                    "angle" : {
                                      "type" : "double",
                                      "defaultValue" : 0.0,
                                      "interp" : "linr",
                                      "valueBounds" : {
                                        "minValue" : 0.0,
                                        "maxValue" : 0.0,
                                        "defaultValue" : 5.49778714378214
                                      },
                                      "uiHints" : {
                                        "userInterfaceType" : 0,
                                        "unitType" : 0
                                      },
                                      "keyframes" : [
                                        {
                                          "endTime" : 10,
                                          "time" : 0,
                                          "value" : 0.0,
                                          "duration" : 10
                                        },
                                        {
                                          "endTime" : 214,
                                          "time" : 207,
                                          "value" : 0.0,
                                          "duration" : 7
                                        }
                                      ]
                                    },
                                    "blur" : {
                                      "type" : "double",
                                      "defaultValue" : 15.0,
                                      "interp" : "linr",
                                      "valueBounds" : {
                                        "minValue" : 0.0,
                                        "maxValue" : 50.0,
                                        "defaultValue" : 10.0
                                      },
                                      "uiHints" : {
                                        "userInterfaceType" : 0,
                                        "unitType" : 0
                                      },
                                      "keyframes" : [
                                        {
                                          "endTime" : 10,
                                          "time" : 0,
                                          "value" : 15.0,
                                          "duration" : 10
                                        },
                                        {
                                          "endTime" : 214,
                                          "time" : 207,
                                          "value" : 15.0,
                                          "duration" : 7
                                        }
                                      ]
                                    },
                                    "color-alpha" : {
                                      "type" : "double",
                                      "defaultValue" : 1.0,
                                      "interp" : "linr",
                                      "valueBounds" : {
                                        "minValue" : 0.0,
                                        "maxValue" : 1.0,
                                        "defaultValue" : 1.0
                                      },
                                      "uiHints" : {
                                        "userInterfaceType" : 0,
                                        "unitType" : 0
                                      }
                                    },
                                    "color-blue" : {
                                      "type" : "double",
                                      "defaultValue" : 0.1216,
                                      "interp" : "linr",
                                      "valueBounds" : {
                                        "minValue" : 0.0,
                                        "maxValue" : 1.0,
                                        "defaultValue" : 0.1216
                                      },
                                      "uiHints" : {
                                        "userInterfaceType" : 0,
                                        "unitType" : 0
                                      }
                                    },
                                    "color-green" : {
                                      "type" : "double",
                                      "defaultValue" : 0.1216,
                                      "interp" : "linr",
                                      "valueBounds" : {
                                        "minValue" : 0.0,
                                        "maxValue" : 1.0,
                                        "defaultValue" : 0.1216
                                      },
                                      "uiHints" : {
                                        "userInterfaceType" : 0,
                                        "unitType" : 0
                                      }
                                    },
                                    "color-red" : {
                                      "type" : "double",
                                      "defaultValue" : 0.1216,
                                      "interp" : "linr",
                                      "valueBounds" : {
                                        "minValue" : 0.0,
                                        "maxValue" : 1.0,
                                        "defaultValue" : 0.1216
                                      },
                                      "uiHints" : {
                                        "userInterfaceType" : 0,
                                        "unitType" : 0
                                      }
                                    },
                                    "enabled" : {
                                      "type" : "int",
                                      "valueBounds" : {
                                        "minValue" : 0,
                                        "maxValue" : 1,
                                        "defaultValue" : 1
                                      },
                                      "uiHints" : {
                                        "userInterfaceType" : 0,
                                        "unitType" : 0
                                      },
                                      "keyframes" : [
                                        {
                                          "endTime" : 0,
                                          "time" : 0,
                                          "value" : 1,
                                          "duration" : 0
                                        }
                                      ]
                                    },
                                    "offset" : {
                                      "type" : "double",
                                      "defaultValue" : 5.0,
                                      "interp" : "linr",
                                      "valueBounds" : {
                                        "minValue" : 0.0,
                                        "maxValue" : 250.0,
                                        "defaultValue" : 10.0
                                      },
                                      "uiHints" : {
                                        "userInterfaceType" : 0,
                                        "unitType" : 0
                                      },
                                      "keyframes" : [
                                        {
                                          "endTime" : 10,
                                          "time" : 0,
                                          "value" : 5.0,
                                          "duration" : 10
                                        },
                                        {
                                          "endTime" : 214,
                                          "time" : 207,
                                          "value" : 5.0,
                                          "duration" : 7
                                        }
                                      ]
                                    },
                                    "opacity" : {
                                      "type" : "double",
                                      "defaultValue" : 0.4,
                                      "interp" : "linr",
                                      "valueBounds" : {
                                        "minValue" : 0.0,
                                        "maxValue" : 1.0,
                                        "defaultValue" : 0.4
                                      },
                                      "uiHints" : {
                                        "userInterfaceType" : 0,
                                        "unitType" : 0
                                      }
                                    }
                                  }
                                }
                            ],
                            "start" : 0,
                            "duration" : 214,
                            "mediaStart" : 0,
                            "mediaDuration" : 214,
                            "scalar" : 1,
                            "metadata" : {
                              "WinSubProjectDisplayName" : "",
                              "clipSpeedAttribute" : false,
                              "effectApplied" : "none"
                            },
                            "animationTracks" : {
                              "visual" : [
                                {
                                  "endTime" : 10,
                                  "duration" : 10,
                                  "range" : [ 0, 10]
                                },
                                {
                                  "endTime" : 214,
                                  "duration" : 7,
                                  "range" : [ 207, 7]
                                }
                              ]
                            }
                          }
                        ],
                          "ident" : "",
                          "audioMuted" : false,
                          "videoHidden" : false,
                          "magnetic" : false,
                          "matte" : 0,
                          "metadata" : {
                            "IsLocked" : "False",
                            "WinTrackHeight" : "0",
                            "trackHeight" : "48"
                          }
                      },
                      {
                        "trackIndex" : 1,
                        "medias" : [
                          {
                            "id" : 101,
                            "_type" : "Callout",
                            "def" : {
                              "kind" : "remix",
                              "shape" : "shape-rectangle",
                              "style" : "abstract",
                              "fill-color-blue" : {
                                "type" : "double",
                                "defaultValue" : 0.541176470588235,
                                "interp" : "linr",
                                "keyframes" : [
                                  {
                                    "endTime" : 20,
                                    "time" : 5,
                                    "value" : 0.541176470588235,
                                    "duration" : 15
                                  },
                                  {
                                    "endTime" : 213,
                                    "time" : 197,
                                    "value" : 0.541176470588235,
                                    "duration" : 16
                                  }
                                ]
                              },
                              "fill-color-green" : {
                                "type" : "double",
                                "defaultValue" : 0.815686274509804,
                                "interp" : "linr",
                                "keyframes" : [
                                  {
                                    "endTime" : 20,
                                    "time" : 5,
                                    "value" : 0.815686274509804,
                                    "duration" : 15
                                  },
                                  {
                                    "endTime" : 213,
                                    "time" : 197,
                                    "value" : 0.815686274509804,
                                    "duration" : 16
                                  }
                                ]
                              },
                              "fill-color-opacity" : {
                                "type" : "double",
                                "defaultValue" : 1.0,
                                "interp" : "linr"
                              },
                              "fill-color-red" : {
                                "type" : "double",
                                "defaultValue" : 0.254901960784314,
                                "interp" : "linr",
                                "keyframes" : [
                                  {
                                    "endTime" : 20,
                                    "time" : 5,
                                    "value" : 0.254901960784314,
                                    "duration" : 15
                                  },
                                  {
                                    "endTime" : 213,
                                    "time" : 197,
                                    "value" : 0.254901960784314,
                                    "duration" : 16
                                  }
                                ]
                              },
                              "height" : {
                                "type" : "double",
                                "defaultValue" : 158.785714285758,
                                "interp" : "linr"
                              },
                              "stroke-color-blue" : {
                                "type" : "double",
                                "defaultValue" : 1.0,
                                "interp" : "linr"
                              },
                              "stroke-color-green" : {
                                "type" : "double",
                                "defaultValue" : 1.0,
                                "interp" : "linr"
                              },
                              "stroke-color-opacity" : {
                                "type" : "double",
                                "defaultValue" : 1.0,
                                "interp" : "linr"
                              },
                              "stroke-color-red" : {
                                "type" : "double",
                                "defaultValue" : 1.0,
                                "interp" : "linr"
                              },
                              "stroke-width" : {
                                "type" : "double",
                                "defaultValue" : 0.0,
                                "interp" : "linr"
                              },
                              "width" : {
                                "type" : "double",
                                "defaultValue" : 1310.35714285747,
                                "interp" : "linr"
                              },
                              "fill-style" : "solid",
                              "horizontal-alignment" : "center",
                              "stroke-style" : "solid",
                              "vertical-alignment" : "center",
                              "textAttributes" : {
                                "type" : "textAttributeList",
                                "keyframes" : [
                                  {
                                    "endTime" : 0,
                                    "time" : 0,
                                    "value" : null,
                                    "duration" : 0
                                  }
                                ]
                              }
                            },
                            "attributes" : {
                              "autoRotateText" : true
                            },
                            "parameters" : {
                              "translation0" : {
                                "type" : "double",
                                "defaultValue" : 699.151489692914,
                                "interp" : "eioe",
                                "keyframes" : [
                                  {
                                    "endTime" : 20,
                                    "time" : 5,
                                    "value" : 699.151489692914,
                                    "duration" : 15
                                  },
                                  {
                                    "endTime" : 213,
                                    "time" : 197,
                                    "value" : -621.919938879128,
                                    "duration" : 16
                                  }
                                ]
                              },
                              "translation1" : {
                                "type" : "double",
                                "defaultValue" : -0.214282989490641,
                                "interp" : "eioe",
                                "keyframes" : [
                                  {
                                    "endTime" : 20,
                                    "time" : 5,
                                    "value" : -0.214282989490641,
                                    "duration" : 15
                                  },
                                  {
                                    "endTime" : 213,
                                    "time" : 197,
                                    "value" : -0.214286259240623,
                                    "duration" : 16
                                  }
                                ]
                              },
                              "geometryCrop2" : {
                                "type" : "double",
                                "defaultValue" : 1309.35717773438,
                                "interp" : "linr",
                                "keyframes" : [
                                  {
                                    "endTime" : 20,
                                    "time" : 5,
                                    "value" : 0.0,
                                    "duration" : 15
                                  }
                                ]
                              }
                            },
                            "effects" : [
                                {
                                  "effectName" : "DropShadow",
                                  "category" : "categoryVisualEffects",
                                  "parameters" : {
                                    "angle" : {
                                      "type" : "double",
                                      "defaultValue" : 0.0,
                                      "interp" : "linr",
                                      "valueBounds" : {
                                        "minValue" : 0.0,
                                        "maxValue" : 0.0,
                                        "defaultValue" : 5.49778714378214
                                      },
                                      "uiHints" : {
                                        "userInterfaceType" : 0,
                                        "unitType" : 0
                                      },
                                      "keyframes" : [
                                        {
                                          "endTime" : 20,
                                          "time" : 5,
                                          "value" : 0.0,
                                          "duration" : 15
                                        },
                                        {
                                          "endTime" : 213,
                                          "time" : 197,
                                          "value" : 0.0,
                                          "duration" : 16
                                        }
                                      ]
                                    },
                                    "blur" : {
                                      "type" : "double",
                                      "defaultValue" : 15.0,
                                      "interp" : "linr",
                                      "valueBounds" : {
                                        "minValue" : 0.0,
                                        "maxValue" : 50.0,
                                        "defaultValue" : 10.0
                                      },
                                      "uiHints" : {
                                        "userInterfaceType" : 0,
                                        "unitType" : 0
                                      },
                                      "keyframes" : [
                                        {
                                          "endTime" : 20,
                                          "time" : 5,
                                          "value" : 15.0,
                                          "duration" : 15
                                        },
                                        {
                                          "endTime" : 213,
                                          "time" : 197,
                                          "value" : 15.0,
                                          "duration" : 16
                                        }
                                      ]
                                    },
                                    "color-alpha" : {
                                      "type" : "double",
                                      "defaultValue" : 1.0,
                                      "interp" : "linr",
                                      "valueBounds" : {
                                        "minValue" : 0.0,
                                        "maxValue" : 1.0,
                                        "defaultValue" : 1.0
                                      },
                                      "uiHints" : {
                                        "userInterfaceType" : 0,
                                        "unitType" : 0
                                      }
                                    },
                                    "color-blue" : {
                                      "type" : "double",
                                      "defaultValue" : 0.1216,
                                      "interp" : "linr",
                                      "valueBounds" : {
                                        "minValue" : 0.0,
                                        "maxValue" : 1.0,
                                        "defaultValue" : 0.1216
                                      },
                                      "uiHints" : {
                                        "userInterfaceType" : 0,
                                        "unitType" : 0
                                      }
                                    },
                                    "color-green" : {
                                      "type" : "double",
                                      "defaultValue" : 0.1216,
                                      "interp" : "linr",
                                      "valueBounds" : {
                                        "minValue" : 0.0,
                                        "maxValue" : 1.0,
                                        "defaultValue" : 0.1216
                                      },
                                      "uiHints" : {
                                        "userInterfaceType" : 0,
                                        "unitType" : 0
                                      }
                                    },
                                    "color-red" : {
                                      "type" : "double",
                                      "defaultValue" : 0.1216,
                                      "interp" : "linr",
                                      "valueBounds" : {
                                        "minValue" : 0.0,
                                        "maxValue" : 1.0,
                                        "defaultValue" : 0.1216
                                      },
                                      "uiHints" : {
                                        "userInterfaceType" : 0,
                                        "unitType" : 0
                                      }
                                    },
                                    "enabled" : {
                                      "type" : "int",
                                      "valueBounds" : {
                                        "minValue" : 0,
                                        "maxValue" : 1,
                                        "defaultValue" : 1
                                      },
                                      "uiHints" : {
                                        "userInterfaceType" : 0,
                                        "unitType" : 0
                                      },
                                      "keyframes" : [
                                        {
                                          "endTime" : 0,
                                          "time" : 0,
                                          "value" : 1,
                                          "duration" : 0
                                        }
                                      ]
                                    },
                                    "offset" : {
                                      "type" : "double",
                                      "defaultValue" : 5.0,
                                      "interp" : "linr",
                                      "valueBounds" : {
                                        "minValue" : 0.0,
                                        "maxValue" : 250.0,
                                        "defaultValue" : 10.0
                                      },
                                      "uiHints" : {
                                        "userInterfaceType" : 0,
                                        "unitType" : 0
                                      },
                                      "keyframes" : [
                                        {
                                          "endTime" : 20,
                                          "time" : 5,
                                          "value" : 5.0,
                                          "duration" : 15
                                        },
                                        {
                                          "endTime" : 213,
                                          "time" : 197,
                                          "value" : 5.0,
                                          "duration" : 16
                                        }
                                      ]
                                    },
                                    "opacity" : {
                                      "type" : "double",
                                      "defaultValue" : 0.4,
                                      "interp" : "linr",
                                      "valueBounds" : {
                                        "minValue" : 0.0,
                                        "maxValue" : 1.0,
                                        "defaultValue" : 0.4
                                      },
                                      "uiHints" : {
                                        "userInterfaceType" : 0,
                                        "unitType" : 0
                                      }
                                    }
                                  }
                                }
                            ],
                            "start" : 1,
                            "duration" : 213,
                            "mediaStart" : 0,
                            "mediaDuration" : 213,
                            "scalar" : 1,
                            "metadata" : {
                              "WinSubProjectDisplayName" : "",
                              "clipSpeedAttribute" : false,
                              "effectApplied" : "none"
                            },
                            "animationTracks" : {
                              "visual" : [
                                {
                                  "endTime" : 20,
                                  "duration" : 15,
                                  "range" : [ 5, 15]
                                },
                                {
                                  "endTime" : 213,
                                  "duration" : 16,
                                  "range" : [ 197, 16]
                                }
                              ]
                            }
                          }
                        ],
                          "ident" : "",
                          "audioMuted" : false,
                          "videoHidden" : false,
                          "magnetic" : false,
                          "matte" : 0,
                          "metadata" : {
                            "IsLocked" : "False",
                            "WinTrackHeight" : "1.35159763105127e-311",
                            "trackHeight" : "48"
                          }
                      },
                      {
                        "trackIndex" : 2,
                        "medias" : [
                          {
                            "id" : 102,
                            "_type" : "Callout",
                            "def" : {
                              "kind" : "remix",
                              "shape" : "shape-rectangle",
                              "style" : "abstract",
                              "fill-color-blue" : {
                                "type" : "double",
                                "defaultValue" : 0.647058823529412,
                                "interp" : "linr",
                                "keyframes" : [
                                  {
                                    "endTime" : 38,
                                    "time" : 13,
                                    "value" : 0.647058823529412,
                                    "duration" : 25
                                  }
                                ]
                              },
                              "fill-color-green" : {
                                "type" : "double",
                                "defaultValue" : 0.537254901960784,
                                "interp" : "linr",
                                "keyframes" : [
                                  {
                                    "endTime" : 38,
                                    "time" : 13,
                                    "value" : 0.537254901960784,
                                    "duration" : 25
                                  }
                                ]
                              },
                              "fill-color-opacity" : {
                                "type" : "double",
                                "defaultValue" : 1.0,
                                "interp" : "linr"
                              },
                              "fill-color-red" : {
                                "type" : "double",
                                "defaultValue" : 0.164705882352941,
                                "interp" : "linr",
                                "keyframes" : [
                                  {
                                    "endTime" : 38,
                                    "time" : 13,
                                    "value" : 0.164705882352941,
                                    "duration" : 25
                                  }
                                ]
                              },
                              "height" : {
                                "type" : "double",
                                "defaultValue" : 158.785714285758,
                                "interp" : "linr"
                              },
                              "stroke-color-blue" : {
                                "type" : "double",
                                "defaultValue" : 1.0,
                                "interp" : "linr"
                              },
                              "stroke-color-green" : {
                                "type" : "double",
                                "defaultValue" : 1.0,
                                "interp" : "linr"
                              },
                              "stroke-color-opacity" : {
                                "type" : "double",
                                "defaultValue" : 1.0,
                                "interp" : "linr"
                              },
                              "stroke-color-red" : {
                                "type" : "double",
                                "defaultValue" : 1.0,
                                "interp" : "linr"
                              },
                              "stroke-width" : {
                                "type" : "double",
                                "defaultValue" : 0.0,
                                "interp" : "linr"
                              },
                              "width" : {
                                "type" : "double",
                                "defaultValue" : 1310.35714285747,
                                "interp" : "linr"
                              },
                              "fill-style" : "solid",
                              "horizontal-alignment" : "center",
                              "stroke-style" : "solid",
                              "vertical-alignment" : "center",
                              "textAttributes" : {
                                "type" : "textAttributeList",
                                "keyframes" : [
                                  {
                                    "endTime" : 0,
                                    "time" : 0,
                                    "value" : null,
                                    "duration" : 0
                                  }
                                ]
                              }
                            },
                            "attributes" : {
                              "autoRotateText" : true
                            },
                            "parameters" : {
                              "translation0" : {
                                "type" : "double",
                                "defaultValue" : 699.151489692914,
                                "interp" : "eioe",
                                "keyframes" : [
                                  {
                                    "endTime" : 38,
                                    "time" : 13,
                                    "value" : 699.151489692914,
                                    "duration" : 25
                                  }
                                ]
                              },
                              "translation1" : {
                                "type" : "double",
                                "defaultValue" : -0.214282989490641,
                                "interp" : "eioe",
                                "keyframes" : [
                                  {
                                    "endTime" : 38,
                                    "time" : 13,
                                    "value" : -0.214282989490641,
                                    "duration" : 25
                                  }
                                ]
                              },
                              "geometryCrop2" : {
                                "type" : "double",
                                "defaultValue" : 1309.35717773438,
                                "interp" : "linr",
                                "keyframes" : [
                                  {
                                    "endTime" : 38,
                                    "time" : 13,
                                    "value" : 0.0,
                                    "duration" : 25
                                  }
                                ]
                              }
                            },
                            "effects" : [
                                {
                                  "effectName" : "DropShadow",
                                  "category" : "categoryVisualEffects",
                                  "parameters" : {
                                    "angle" : {
                                      "type" : "double",
                                      "defaultValue" : 0.0,
                                      "interp" : "linr",
                                      "valueBounds" : {
                                        "minValue" : 0.0,
                                        "maxValue" : 0.0,
                                        "defaultValue" : 5.49778714378214
                                      },
                                      "uiHints" : {
                                        "userInterfaceType" : 0,
                                        "unitType" : 0
                                      },
                                      "keyframes" : [
                                        {
                                          "endTime" : 38,
                                          "time" : 13,
                                          "value" : 0.0,
                                          "duration" : 25
                                        }
                                      ]
                                    },
                                    "blur" : {
                                      "type" : "double",
                                      "defaultValue" : 15.0,
                                      "interp" : "linr",
                                      "valueBounds" : {
                                        "minValue" : 0.0,
                                        "maxValue" : 50.0,
                                        "defaultValue" : 10.0
                                      },
                                      "uiHints" : {
                                        "userInterfaceType" : 0,
                                        "unitType" : 0
                                      },
                                      "keyframes" : [
                                        {
                                          "endTime" : 38,
                                          "time" : 13,
                                          "value" : 15.0,
                                          "duration" : 25
                                        }
                                      ]
                                    },
                                    "color-alpha" : {
                                      "type" : "double",
                                      "defaultValue" : 1.0,
                                      "interp" : "linr",
                                      "valueBounds" : {
                                        "minValue" : 0.0,
                                        "maxValue" : 1.0,
                                        "defaultValue" : 1.0
                                      },
                                      "uiHints" : {
                                        "userInterfaceType" : 0,
                                        "unitType" : 0
                                      }
                                    },
                                    "color-blue" : {
                                      "type" : "double",
                                      "defaultValue" : 0.1216,
                                      "interp" : "linr",
                                      "valueBounds" : {
                                        "minValue" : 0.0,
                                        "maxValue" : 1.0,
                                        "defaultValue" : 0.1216
                                      },
                                      "uiHints" : {
                                        "userInterfaceType" : 0,
                                        "unitType" : 0
                                      }
                                    },
                                    "color-green" : {
                                      "type" : "double",
                                      "defaultValue" : 0.1216,
                                      "interp" : "linr",
                                      "valueBounds" : {
                                        "minValue" : 0.0,
                                        "maxValue" : 1.0,
                                        "defaultValue" : 0.1216
                                      },
                                      "uiHints" : {
                                        "userInterfaceType" : 0,
                                        "unitType" : 0
                                      }
                                    },
                                    "color-red" : {
                                      "type" : "double",
                                      "defaultValue" : 0.1216,
                                      "interp" : "linr",
                                      "valueBounds" : {
                                        "minValue" : 0.0,
                                        "maxValue" : 1.0,
                                        "defaultValue" : 0.1216
                                      },
                                      "uiHints" : {
                                        "userInterfaceType" : 0,
                                        "unitType" : 0
                                      }
                                    },
                                    "enabled" : {
                                      "type" : "int",
                                      "valueBounds" : {
                                        "minValue" : 0,
                                        "maxValue" : 1,
                                        "defaultValue" : 1
                                      },
                                      "uiHints" : {
                                        "userInterfaceType" : 0,
                                        "unitType" : 0
                                      },
                                      "keyframes" : [
                                        {
                                          "endTime" : 0,
                                          "time" : 0,
                                          "value" : 1,
                                          "duration" : 0
                                        }
                                      ]
                                    },
                                    "offset" : {
                                      "type" : "double",
                                      "defaultValue" : 5.0,
                                      "interp" : "linr",
                                      "valueBounds" : {
                                        "minValue" : 0.0,
                                        "maxValue" : 250.0,
                                        "defaultValue" : 10.0
                                      },
                                      "uiHints" : {
                                        "userInterfaceType" : 0,
                                        "unitType" : 0
                                      },
                                      "keyframes" : [
                                        {
                                          "endTime" : 38,
                                          "time" : 13,
                                          "value" : 5.0,
                                          "duration" : 25
                                        }
                                      ]
                                    },
                                    "opacity" : {
                                      "type" : "double",
                                      "defaultValue" : 0.4,
                                      "interp" : "linr",
                                      "valueBounds" : {
                                        "minValue" : 0.0,
                                        "maxValue" : 1.0,
                                        "defaultValue" : 0.4
                                      },
                                      "uiHints" : {
                                        "userInterfaceType" : 0,
                                        "unitType" : 0
                                      }
                                    }
                                  }
                                }
                            ],
                            "start" : 0,
                            "duration" : 176,
                            "mediaStart" : 0,
                            "mediaDuration" : 176,
                            "scalar" : 1,
                            "metadata" : {
                              "WinSubProjectDisplayName" : "",
                              "clipSpeedAttribute" : false,
                              "effectApplied" : "none"
                            },
                            "animationTracks" : {
                              "visual" : [
                                {
                                  "endTime" : 38,
                                  "duration" : 25,
                                  "range" : [ 13, 25]
                                }
                              ]
                            }
                          }
                        ],
                          "ident" : "",
                          "audioMuted" : false,
                          "videoHidden" : false,
                          "magnetic" : false,
                          "matte" : 0,
                          "metadata" : {
                            "IsLocked" : "False",
                            "WinTrackHeight" : "1.35159763105127e-311",
                            "trackHeight" : "48"
                          }
                      },
                      {
                        "trackIndex" : 3,
                        "medias" : [
                          {
                            "id" : 103,
                            "_type" : "Callout",
                            "def" : {
                              "kind" : "remix",
                              "shape" : "shape-rectangle",
                              "style" : "abstract",
                              "fill-color-blue" : {
                                "type" : "double",
                                "defaultValue" : 0.694117647058824,
                                "interp" : "linr",
                                "keyframes" : [
                                  {
                                    "endTime" : 136,
                                    "time" : 0,
                                    "value" : 0.694117647058824,
                                    "duration" : 136
                                  },
                                  {
                                    "endTime" : 171,
                                    "time" : 146,
                                    "value" : 0.694117647058824,
                                    "duration" : 25
                                  }
                                ]
                              },
                              "fill-color-green" : {
                                "type" : "double",
                                "defaultValue" : 0.6,
                                "interp" : "linr",
                                "keyframes" : [
                                  {
                                    "endTime" : 136,
                                    "time" : 0,
                                    "value" : 0.6,
                                    "duration" : 136
                                  },
                                  {
                                    "endTime" : 171,
                                    "time" : 146,
                                    "value" : 0.6,
                                    "duration" : 25
                                  }
                                ]
                              },
                              "fill-color-opacity" : {
                                "type" : "double",
                                "defaultValue" : 1.0,
                                "interp" : "linr"
                              },
                              "fill-color-red" : {
                                "type" : "double",
                                "defaultValue" : 0.270588235294118,
                                "interp" : "linr",
                                "keyframes" : [
                                  {
                                    "endTime" : 136,
                                    "time" : 0,
                                    "value" : 0.270588235294118,
                                    "duration" : 136
                                  },
                                  {
                                    "endTime" : 171,
                                    "time" : 146,
                                    "value" : 0.270588235294118,
                                    "duration" : 25
                                  }
                                ]
                              },
                              "height" : {
                                "type" : "double",
                                "defaultValue" : 158.732564486591,
                                "interp" : "linr"
                              },
                              "stroke-color-blue" : {
                                "type" : "double",
                                "defaultValue" : 1.0,
                                "interp" : "linr"
                              },
                              "stroke-color-green" : {
                                "type" : "double",
                                "defaultValue" : 1.0,
                                "interp" : "linr"
                              },
                              "stroke-color-opacity" : {
                                "type" : "double",
                                "defaultValue" : 1.0,
                                "interp" : "linr"
                              },
                              "stroke-color-red" : {
                                "type" : "double",
                                "defaultValue" : 1.0,
                                "interp" : "linr"
                              },
                              "stroke-width" : {
                                "type" : "double",
                                "defaultValue" : 0.0,
                                "interp" : "linr"
                              },
                              "width" : {
                                "type" : "double",
                                "defaultValue" : 1282.42857142849,
                                "interp" : "linr",
                                "keyframes" : [
                                  {
                                    "endTime" : 136,
                                    "time" : 0,
                                    "value" : 1310.35713413821,
                                    "duration" : 136
                                  }
                                ]
                              },
                              "fill-style" : "solid",
                              "horizontal-alignment" : "center",
                              "stroke-style" : "solid",
                              "vertical-alignment" : "center",
                              "textAttributes" : {
                                "type" : "textAttributeList",
                                "keyframes" : [
                                  {
                                    "endTime" : 0,
                                    "time" : 0,
                                    "value" : null,
                                    "duration" : 0
                                  }
                                ]
                              }
                            },
                            "attributes" : {
                              "autoRotateText" : true
                            },
                            "parameters" : {
                              "translation0" : {
                                "type" : "double",
                                "defaultValue" : -713.115788486258,
                                "interp" : "eioe",
                                "keyframes" : [
                                  {
                                    "endTime" : 136,
                                    "time" : 0,
                                    "value" : 699.151494052664,
                                    "duration" : 136
                                  },
                                  {
                                    "endTime" : 171,
                                    "time" : 146,
                                    "value" : -616.134220233298,
                                    "duration" : 25
                                  }
                                ]
                              },
                              "translation1" : {
                                "type" : "double",
                                "defaultValue" : -0.0265737260986612,
                                "interp" : "eioe",
                                "keyframes" : [
                                  {
                                    "endTime" : 136,
                                    "time" : 0,
                                    "value" : -0.240860530284635,
                                    "duration" : 136
                                  },
                                  {
                                    "endTime" : 171,
                                    "time" : 146,
                                    "value" : -0.187705448583642,
                                    "duration" : 25
                                  }
                                ]
                              }
                            },
                            "effects" : [

                            ],
                            "start" : 38,
                            "duration" : 176,
                            "mediaStart" : 0,
                            "mediaDuration" : 176,
                            "scalar" : 1,
                            "metadata" : {
                              "WinSubProjectDisplayName" : "",
                              "clipSpeedAttribute" : false,
                              "effectApplied" : "none"
                            },
                            "animationTracks" : {
                              "visual" : [
                                {
                                  "endTime" : 136,
                                  "duration" : 136,
                                  "range" : [ 0, 136],
                                  "interp" : "linr"
                                },
                                {
                                  "endTime" : 171,
                                  "duration" : 25,
                                  "range" : [ 146, 25]
                                }
                              ]
                            }
                          }
                        ],
                          "ident" : "",
                          "audioMuted" : false,
                          "videoHidden" : false,
                          "magnetic" : false,
                          "matte" : 0,
                          "metadata" : {
                            "IsLocked" : "False",
                            "WinTrackHeight" : "1.35159763105127e-311",
                            "trackHeight" : "48"
                          }
                      },
                      {
                        "trackIndex" : 4,
                        "medias" : [
                          {
                            "id" : 104,
                            "_type" : "Callout",
                            "def" : {
                              "kind" : "remix",
                              "shape" : "text",
                              "style" : "basic",
                              "height" : {
                                "type" : "double",
                                "defaultValue" : 158.571428571689,
                                "interp" : "linr"
                              },
                              "line-spacing" : {
                                "type" : "double",
                                "defaultValue" : 0.0,
                                "interp" : "linr"
                              },
                              "width" : {
                                "type" : "double",
                                "defaultValue" : 1237.67669172885,
                                "interp" : "linr"
                              },
                              "word-wrap" : {
                                "type" : "double",
                                "defaultValue" : 1.0,
                                "interp" : "linr"
                              },
                              "horizontal-alignment" : "center",
                              "resize-behavior" : "resizeText",
                              "text" : "www.GlobalMentoring.com.mx",
                              "vertical-alignment" : "center",
                              "font" : {
                                "color-blue" : {
                                  "type" : "double",
                                  "defaultValue" : 1.0,
                                  "interp" : "linr"
                                },
                                "color-green" : {
                                  "type" : "double",
                                  "defaultValue" : 1.0,
                                  "interp" : "linr"
                                },
                                "color-red" : {
                                  "type" : "double",
                                  "defaultValue" : 1.0,
                                  "interp" : "linr"
                                },
                                "size" : {
                                  "type" : "double",
                                  "defaultValue" : 96.0,
                                  "interp" : "linr"
                                },
                                "tracking" : {
                                  "type" : "double",
                                  "defaultValue" : 0.0,
                                  "interp" : "linr"
                                },
                                "name" : "Montserrat",
                                "weight" : "Regular"
                              },
                              "textAttributes" : {
                                "type" : "textAttributeList",
                                "keyframes" : [
                                  {
                                    "endTime" : 0,
                                    "time" : 0,
                                    "value" : [{"name":"fontName","rangeEnd":26,"rangeStart":0,"value":"Montserrat","valueType":"string"},{"name":"kerning","rangeEnd":26,"rangeStart":0,"value":0,"valueType":"double"},{"name":"fontSize","rangeEnd":26,"rangeStart":0,"value":96,"valueType":"double"},{"name":"strikethrough","rangeEnd":26,"rangeStart":0,"value":0,"valueType":"int"},{"name":"underline","rangeEnd":26,"rangeStart":0,"value":0,"valueType":"int"},{"name":"fontWeight","rangeEnd":26,"rangeStart":0,"value":400,"valueType":"int"},{"name":"fontItalic","rangeEnd":26,"rangeStart":0,"value":0,"valueType":"int"},{"name":"fgColor","rangeEnd":26,"rangeStart":0,"value":"(255,255,255,255)","valueType":"color"}],
                                    "duration" : 0
                                  }
                                ]
                              }
                            },
                            "attributes" : {
                              "autoRotateText" : true
                            },
                            "parameters" : {
                              "translation0" : {
                                "type" : "double",
                                "defaultValue" : -579.329713314238,
                                "interp" : "eioe",
                                "keyframes" : [
                                  {
                                    "endTime" : 30,
                                    "time" : 2,
                                    "value" : 699.313143828538,
                                    "duration" : 28
                                  },
                                  {
                                    "endTime" : 180,
                                    "time" : 152,
                                    "value" : -598.615427600048,
                                    "duration" : 28
                                  }
                                ]
                              },
                              "translation1" : {
                                "type" : "double",
                                "defaultValue" : 0.107146671752332,
                                "interp" : "eioe",
                                "keyframes" : [
                                  {
                                    "endTime" : 30,
                                    "time" : 2,
                                    "value" : 0.107146671838336,
                                    "duration" : 28
                                  },
                                  {
                                    "endTime" : 180,
                                    "time" : 152,
                                    "value" : 0.107146671710382,
                                    "duration" : 28
                                  }
                                ]
                              }
                            },
                            "effects" : [
                                {
                                  "effectName" : "DropShadow",
                                  "category" : "categoryVisualEffects",
                                  "parameters" : {
                                    "angle" : {
                                      "type" : "double",
                                      "defaultValue" : 5.49778714378214,
                                      "interp" : "linr",
                                      "valueBounds" : {
                                        "minValue" : 0.0,
                                        "maxValue" : 0.0,
                                        "defaultValue" : 5.49778714378214
                                      },
                                      "uiHints" : {
                                        "userInterfaceType" : 0,
                                        "unitType" : 0
                                      }
                                    },
                                    "blur" : {
                                      "type" : "double",
                                      "defaultValue" : 10.0,
                                      "interp" : "linr",
                                      "valueBounds" : {
                                        "minValue" : 0.0,
                                        "maxValue" : 50.0,
                                        "defaultValue" : 10.0
                                      },
                                      "uiHints" : {
                                        "userInterfaceType" : 0,
                                        "unitType" : 0
                                      },
                                      "keyframes" : [
                                        {
                                          "endTime" : 30,
                                          "time" : 2,
                                          "value" : 10.0,
                                          "duration" : 28
                                        }
                                      ]
                                    },
                                    "color-alpha" : {
                                      "type" : "double",
                                      "defaultValue" : 1.0,
                                      "interp" : "linr",
                                      "valueBounds" : {
                                        "minValue" : 0.0,
                                        "maxValue" : 1.0,
                                        "defaultValue" : 1.0
                                      },
                                      "uiHints" : {
                                        "userInterfaceType" : 0,
                                        "unitType" : 0
                                      }
                                    },
                                    "color-blue" : {
                                      "type" : "double",
                                      "defaultValue" : 0.1216,
                                      "interp" : "linr",
                                      "valueBounds" : {
                                        "minValue" : 0.0,
                                        "maxValue" : 1.0,
                                        "defaultValue" : 0.1216
                                      },
                                      "uiHints" : {
                                        "userInterfaceType" : 0,
                                        "unitType" : 0
                                      }
                                    },
                                    "color-green" : {
                                      "type" : "double",
                                      "defaultValue" : 0.1216,
                                      "interp" : "linr",
                                      "valueBounds" : {
                                        "minValue" : 0.0,
                                        "maxValue" : 1.0,
                                        "defaultValue" : 0.1216
                                      },
                                      "uiHints" : {
                                        "userInterfaceType" : 0,
                                        "unitType" : 0
                                      }
                                    },
                                    "color-red" : {
                                      "type" : "double",
                                      "defaultValue" : 0.1216,
                                      "interp" : "linr",
                                      "valueBounds" : {
                                        "minValue" : 0.0,
                                        "maxValue" : 1.0,
                                        "defaultValue" : 0.1216
                                      },
                                      "uiHints" : {
                                        "userInterfaceType" : 0,
                                        "unitType" : 0
                                      }
                                    },
                                    "enabled" : {
                                      "type" : "int",
                                      "valueBounds" : {
                                        "minValue" : 0,
                                        "maxValue" : 1,
                                        "defaultValue" : 1
                                      },
                                      "uiHints" : {
                                        "userInterfaceType" : 0,
                                        "unitType" : 0
                                      },
                                      "keyframes" : [
                                        {
                                          "endTime" : 0,
                                          "time" : 0,
                                          "value" : 1,
                                          "duration" : 0
                                        }
                                      ]
                                    },
                                    "offset" : {
                                      "type" : "double",
                                      "defaultValue" : 10.0,
                                      "interp" : "linr",
                                      "valueBounds" : {
                                        "minValue" : 0.0,
                                        "maxValue" : 250.0,
                                        "defaultValue" : 10.0
                                      },
                                      "uiHints" : {
                                        "userInterfaceType" : 0,
                                        "unitType" : 0
                                      },
                                      "keyframes" : [
                                        {
                                          "endTime" : 30,
                                          "time" : 2,
                                          "value" : 10.0,
                                          "duration" : 28
                                        }
                                      ]
                                    },
                                    "opacity" : {
                                      "type" : "double",
                                      "defaultValue" : 0.4,
                                      "interp" : "linr",
                                      "valueBounds" : {
                                        "minValue" : 0.0,
                                        "maxValue" : 1.0,
                                        "defaultValue" : 0.4
                                      },
                                      "uiHints" : {
                                        "userInterfaceType" : 0,
                                        "unitType" : 0
                                      }
                                    }
                                  }
                                }
                            ],
                            "start" : 22,
                            "duration" : 180,
                            "mediaStart" : 0,
                            "mediaDuration" : 180,
                            "scalar" : 1,
                            "metadata" : {
                              "WinSubProjectDisplayName" : "",
                              "clipSpeedAttribute" : false,
                              "effectApplied" : "none"
                            },
                            "animationTracks" : {
                              "visual" : [
                                {
                                  "endTime" : 30,
                                  "duration" : 28,
                                  "range" : [ 2, 28],
                                  "interp" : "eioe"
                                },
                                {
                                  "endTime" : 180,
                                  "duration" : 28,
                                  "range" : [ 152, 28]
                                }
                              ]
                            }
                          }
                        ],
                          "ident" : "",
                          "audioMuted" : false,
                          "videoHidden" : false,
                          "magnetic" : false,
                          "matte" : 0,
                          "metadata" : {
                            "IsLocked" : "False",
                            "WinTrackHeight" : "1.35159763105127e-311",
                            "trackHeight" : "48"
                          }
                      }
                    ],
                    "attributes" : {
                      "ident" : "GM-texto2",
                      "gain" : 1.0,
                      "mixToMono" : false,
                      "assetProperties" : [
                        {
                          "type" : 0,
                          "name" : "Title",
                          "objects" : [ 104 ],
                          "themeMappings" :  {
                            "font-color" : "foreground-1",
                            "font-family" : "font-1"
                          }
                        },
                        {
                          "type" : 1,
                          "name" : "Color 1",
                          "objects" : [ 103 ],
                          "themeMappings" :  {
                            "fill" : "background-1"
                          }
                        },
                        {
                          "type" : 1,
                          "name" : "Color 2",
                          "objects" : [ 102 ],
                          "themeMappings" :  {
                            "fill" : "background-2"
                          }
                        },
                        {
                          "type" : 1,
                          "name" : "Color 3",
                          "objects" : [ 101 ],
                          "themeMappings" :  {
                            "fill" : "accent-1"
                          }
                        },
                        {
                          "type" : 1,
                          "name" : "Color 4",
                          "objects" : [ 100 ],
                          "themeMappings" :  {
                            "fill" : "foreground-1"
                          }
                        }
                      ]
                    },
                    "effects" : [

                    ],
                    "start" : 3724,
                    "duration" : 214,
                    "mediaStart" : 0.0,
                    "mediaDuration" : 214.0,
                    "scalar" : 1,
                    "metadata" : {
                      "AppliedThemeId" : "",
                      "IsGroupExpanded" : "False",
                      "WinSubProjectDisplayName" : "",
                      "clipSpeedAttribute" : false,
                      "effectApplied" : "none",
                      "isOpen" : false
                    },
                    "animationTracks" : {

                    }
                  }
                ]
              },
              {
                "trackIndex" : 3,
                "medias" : [
                ]
              }
            ]
          }
        }
      ]
    },
    "trackAttributes" : [
      {
        "ident" : "",
        "audioMuted" : false,
        "videoHidden" : false,
        "magnetic" : false,
        "matte" : 0,
        "metadata" : {
          "IsLocked" : "False",
          "WinTrackHeight" : "56",
          "trackHeight" : "48"
        }
      },
      {
        "ident" : "",
        "audioMuted" : false,
        "videoHidden" : false,
        "magnetic" : false,
        "matte" : 0,
        "metadata" : {
          "IsLocked" : "False",
          "WinTrackHeight" : "56",
          "trackHeight" : "53"
        }
      },
      {
        "ident" : "",
        "audioMuted" : false,
        "videoHidden" : false,
        "magnetic" : false,
        "matte" : 0,
        "metadata" : {
          "IsLocked" : "False",
          "WinTrackHeight" : "56",
          "trackHeight" : "48"
        }
      },
      {
        "ident" : "",
        "audioMuted" : false,
        "videoHidden" : false,
        "magnetic" : false,
        "matte" : 0,
        "metadata" : {
          "IsLocked" : "False",
          "WinTrackHeight" : "56"
        }
      }
    ],
    "captionAttributes" : {
      "enabled" : true,
      "fontName" : "Arial",
      "fontSize" : 42,
      "backgroundColor" : [ 0, 0, 0, 191],
      "foregroundColor" : [ 255, 255, 255, 255],
      "lang" : "en",
      "alignment" : 0,
      "defaultFontSize" : true,
      "opacity" : 0.5,
      "backgroundEnabled" : true,
      "backgroundOnlyAroundText" : true
    },
    "backgroundColor" : [ 0, 0, 0, 255]
  },
  "metadata" : {
    "AutoSaveFile" : "",
    "CanvasZoom" : 100,
    "Date" : "2021-06-18 08:21:54 p. m.",
    "IsAutoSave" : "0",
    "Language" : "ENU",
    "ProfileName" : "",
    "ProjectDimensionsChanged" : "1",
    "Title" : "02-20-01-MetodoIsLowerIsUpper-UP",
    "audioNarrationNotes" : "",
    "autoSavePath" : "/Users/march/Library/Application Support/TechSmith/Camtasia 2019/AutoSave/80AB7CAD-FF4F-4E24-B7D0-F9B4BBECA99A-380-000003DBDA17BB1C.tscproj",
    "calloutStyle" : "Basic",
    "canvasDetached" : "False",
    "canvasPositionHeight" : "0",
    "canvasPositionLeft" : "0",
    "canvasPositionTop" : "0",
    "canvasPositionWidth" : "0",
    "firstMedia" : true,
    "hasNotifiedAboutHFRMedia" : false
  }
}
